<svg id="Layer_1" data-name="Layer 1" xmlns="http://www.w3.org/2000/svg" viewBox="0 0 180 80"><defs><style>.cls-1{fill:none}.cls-4{fill:#ff2121}</style><clipPath id="clip-path"><path class="cls-1" d="M15 16.39h150v47.23H15z"/></clipPath><clipPath id="clip-path-2"><path class="cls-1" d="M15 16.38h150v47.23H15z"/></clipPath></defs><g clip-path="url(#clip-path)" id="alfabank_cyr3"><g clip-path="url(#clip-path-2)"><path class="cls-4" d="M119.13 40.1a1.71 1.71 0 1 0 1.71 1.7 1.71 1.71 0 0 0-1.71-1.7M60 41.73l1-3.3.86-3H62s.48 1.9.79 3l.94 3.32zm5.18 5.19h3.1l-4.64-14.24a5.7 5.7 0 0 0-1.74-.27 4.1 4.1 0 0 0-1.52.26l-4.94 14.25h3l.87-2.8h5.11zm99.79 0s-1.46-3.12-1.8-3.82-.78-1.35-1.6-1.55c.54-.1 1-.44 1.45-1.45s.6-1.22.87-1.45a.72.72 0 0 1 .62-.15l.12-1.85a8.15 8.15 0 0 0-1.23 0 2.05 2.05 0 0 0-1.46.62 4.73 4.73 0 0 0-.7 1.16l-.7 1.46c-.26.54-.39.77-1.07.77H159v-3.93h-2.68v10.19H159v-4.17h.36c.78 0 .91.18 1.31 1s1.38 3.17 1.38 3.17zm-11 0V36.73h-2.69v3.86h-3v-3.87h-2.67V46.9h2.67v-4.13h3v4.15zM80.28 36.64v9.73a10.55 10.55 0 0 0 3.9.78c2.83 0 4.37-1.47 4.37-3.9 0-2.19-1.36-3.54-3.87-3.54A5.88 5.88 0 0 0 83 40v-3.38h-2.72zm5.5 6.74c0 1-.35 1.7-1.64 1.7a3.44 3.44 0 0 1-1.14-.15V42a5.11 5.11 0 0 1 1.16-.17c1.23 0 1.65.61 1.65 1.56m58.45 2.56a4.6 4.6 0 0 1-.89-3.06v-2.75a3.83 3.83 0 0 0-.57-2.58c-.54-.76-1.44-1.09-3.12-1.09a13.62 13.62 0 0 0-3.44.42l.4 2a15.08 15.08 0 0 1 2.11-.21c1.77 0 2 .26 2 1.59v.5a4.55 4.55 0 0 0-1.34-.2c-2.69 0-4.09 1.32-4.09 3.47a3.08 3.08 0 0 0 3.35 3.14 5.22 5.22 0 0 0 2-.37 5 5 0 0 0 .93-.51 2.84 2.84 0 0 0 1 .85l1.71-1.19zm-3.4-1.18a3.94 3.94 0 0 1-1.45.26c-.95 0-1.49-.39-1.49-1.37s.68-1.36 2-1.36a2.92 2.92 0 0 1 .79.1v.72a6.78 6.78 0 0 0 .14 1.65m-26.37 1.18a4.65 4.65 0 0 1-.89-3.06v-2.75a4 4 0 0 0-.56-2.58c-.55-.76-1.45-1.09-3.12-1.09a13.64 13.64 0 0 0-3.45.42l.39 2a16.45 16.45 0 0 1 2.11-.2c1.77 0 2 .26 2 1.59v.5a4.6 4.6 0 0 0-1.36-.19c-2.67 0-4.08 1.31-4.08 3.47a3.08 3.08 0 0 0 3.35 3.13 5.48 5.48 0 0 0 2-.36 4.57 4.57 0 0 0 .93-.52 2.66 2.66 0 0 0 1 .85zm-3.35-1.18a3.9 3.9 0 0 1-1.44.26c-1 0-1.5-.39-1.5-1.37s.68-1.36 2-1.36a2.86 2.86 0 0 1 .79.1v.72a6.78 6.78 0 0 0 .14 1.65m-32.88 2.15v-9.83a13.54 13.54 0 0 0-4.09-.63 13 13 0 0 0-4.05.63v5a7.15 7.15 0 0 1-.17 2.21 2.28 2.28 0 0 1-.9 1.21l.75 1.57c2.14-.61 3-1.55 3-4.51V38.9a6.83 6.83 0 0 1 1.41-.13 6.65 6.65 0 0 1 1.39.13v8h2.68zm20.09 3.32v-3.66a4.28 4.28 0 0 0 2.16.49c2.25 0 3.93-1.87 3.93-5.32 0-3.72-1.66-5.29-4.39-5.29a3.54 3.54 0 0 0-1.71.34v-4.39h-2.65v4.39a3.7 3.7 0 0 0-1.67-.34c-2.73 0-4.38 1.65-4.38 5.35 0 3.46 1.49 5.26 3.93 5.26a4.36 4.36 0 0 0 2.17-.49v3.66h2.66zm-6-8.43c0-2 .62-3.12 1.85-3.12a3 3 0 0 1 1.51.3v5.62a3.79 3.79 0 0 1-1.39.22c-1.39 0-2-1.14-2-3m9.36-.06c0 1.88-.74 3.09-2 3.09a3.73 3.73 0 0 1-1.38-.23V39a2.85 2.85 0 0 1 1.51-.3c1.22 0 1.84 1 1.84 3.06m32.54.73c0-2.53-1.48-4.25-4.59-4.25a8 8 0 0 0-2.11.26v-3.65a26.73 26.73 0 0 1 5.44 0l.06-2.1a20.84 20.84 0 0 0-4.12-.42 21.22 21.22 0 0 0-4.22.57v13.47a12.4 12.4 0 0 0 4.4.79c3.39 0 5.16-1.8 5.16-4.68zm-2.83.21a2 2 0 0 1-2.16 2.25 5.83 5.83 0 0 1-1.71-.19v-4.14a8.77 8.77 0 0 1 1.71-.12 2 2 0 0 1 2.16 2.19M30.13 23.85L26 36.42h8.43l-4.2-12.57zM15.47 57.31a.47.47 0 0 0-.47.47v5.35a.47.47 0 0 0 .46.48h29.38a.47.47 0 0 0 .47-.48v-5.35a.48.48 0 0 0-.47-.47H15.47zm14.67-40.92c3.21 0 4.23 2.3 5.07 4.6l9 24.53a.48.48 0 0 1-.27.62L39 48a.47.47 0 0 1-.6-.27L36.34 42H24c-.22.55-2 5.54-2.11 5.78a.47.47 0 0 1-.6.27l-4.88-1.89a.49.49 0 0 1-.27-.62l9-24.52c.81-2.27 1.86-4.61 5.07-4.61z"/></g></g></svg>