<?xml version="1.0" encoding="UTF-8" standalone="no"?>
<!-- Created with Inkscape (http://www.inkscape.org/) -->

<svg
   xmlns:dc="http://purl.org/dc/elements/1.1/"
   xmlns:cc="http://creativecommons.org/ns#"
   xmlns:rdf="http://www.w3.org/1999/02/22-rdf-syntax-ns#"
   xmlns:svg="http://www.w3.org/2000/svg"
   xmlns="http://www.w3.org/2000/svg"
   version="1.1"
   width="896.81097"
   height="287.00787"
   id="svg2985"
   xml:space="preserve"><metadata
     id="metadata2991"><rdf:RDF><cc:Work
         rdf:about=""><dc:format>image/svg+xml</dc:format><dc:type
           rdf:resource="http://purl.org/dc/dcmitype/StillImage" /><dc:title></dc:title></cc:Work></rdf:RDF></metadata><defs
     id="defs2989" /><g
     transform="translate(-3.5191074,3.452378)"
     id="g55426"><g
       transform="translate(3.5190758,-3.5017179)"
       id="g4821"><g
         id="g4700"><path
           d="m 405.99612,134.24876 -4.53901,25.68481 -55.52813,0 -9.82093,52.51119 -34.76284,0 24.18088,-130.33573 89.91045,0 -4.52995,26.07439 -55.53719,0 -4.91047,26.06534"
           id="path3253"
           style="fill:#113e74;fill-opacity:1;fill-rule:evenodd;stroke:none" /><path
           d="m 556.93406,91.821243 0.39864,-1.82104 26.09251,0 c 6.80399,0 16.64304,0.398636 24.21712,4.321572 7.99083,4.131315 13.36335,11.886585 10.23768,26.400555 -1.38616,6.43252 -4.49371,12.10402 -8.64314,16.70645 -2.84481,3.15285 -6.18791,5.8074 -9.80281,7.864 5.01012,1.53112 9.1505,4.35781 12.05872,8.30792 3.32499,4.51183 5.01013,10.44607 4.53901,17.51279 -0.11777,1.8301 -0.39863,3.77798 -0.84257,5.84364 -2.66361,12.39394 -9.14144,21.01897 -17.23193,26.6814 -10.02025,7.00331 -22.51385,9.41324 -33.30419,8.81529 l -33.70283,0 0.60701,-2.78139 25.37678,-117.851187 z m 5.70774,48.515767 12.13121,0 c 1.18684,0 6.8674,-0.0453 12.75634,-2.60019 5.78021,-2.51865 11.81411,-7.51972 13.95224,-17.45843 0.28992,-1.34087 0.46206,-2.70891 0.46206,-4.04978 0,-2.55489 -0.62513,-5.00106 -2.18344,-6.96706 -1.61266,-2.02036 -4.27627,-3.64208 -8.35323,-4.51183 -2.14719,-0.46205 -4.68396,-0.71573 -7.64655,-0.71573 l -13.29994,0 -7.81869,36.30302 z m -12.51172,58.08302 16.67927,0 c 9.41324,0 16.34407,-2.34651 21.33607,-5.87081 6.25133,-4.41218 9.5129,-10.71787 10.76316,-16.55244 2.34652,-10.89 -2.11095,-16.25346 -7.56501,-18.87177 -5.79834,-2.79045 -12.8107,-2.75421 -14.55926,-2.75421 l -17.16852,0 -9.48571,44.04923 z m 149.37964,-55.59155 1.34086,-6.22415 0.38958,-1.82104 14.13344,0 -0.59795,2.77233 -15.73705,73.0681 -0.39863,1.8301 -14.12439,0 0.59795,-2.78139 0.94223,-4.38499 c -2.69079,2.37369 -5.57183,4.31251 -8.55254,5.83457 -5.78022,2.96259 -11.94095,4.39405 -17.73929,4.39405 -3.15284,0 -6.10637,-0.31709 -8.86058,-0.90599 -7.76433,-1.67608 -13.78011,-5.57184 -17.86612,-11.04402 -4.05884,-5.42688 -6.17886,-12.37582 -6.17886,-20.18545 0,-3.26157 0.37146,-6.69527 1.13249,-10.23769 2.58207,-11.97719 8.94212,-22.38701 17.66681,-29.77083 8.59784,-7.2751 19.4969,-11.62386 31.32007,-11.62386 4.4303,0 9.5582,0.69762 14.23311,3.23439 3.12566,1.70326 6.01577,4.20379 8.29887,7.84587 z m -37.99723,59.96748 c 7.26604,0 14.21499,-2.94446 19.81401,-8.16297 5.50842,-5.14602 9.72127,-12.52078 11.65103,-21.49008 0.59795,-2.75421 0.88787,-5.43594 0.88787,-7.99083 0,-5.24569 -1.24121,-9.87529 -3.62396,-13.41772 -2.31934,-3.4337 -5.7621,-5.87081 -10.22863,-6.83116 -1.41334,-0.30804 -2.95353,-0.47112 -4.60243,-0.47112 -7.39288,0 -14.4596,3.09849 -20.15828,8.31699 -5.78021,5.29098 -10.12897,12.73822 -11.98625,21.34513 -0.57983,2.69985 -0.86975,5.33628 -0.86975,7.85493 0,5.20944 1.25027,9.84811 3.66926,13.40865 2.36464,3.46995 5.88894,5.9433 10.52761,6.93989 1.50394,0.32615 3.14378,0.49829 4.91952,0.49829 z m 57.85653,9.65786 0.59795,-2.78139 15.73705,-73.0681 0.38957,-1.82104 14.80388,0 -0.59795,2.77233 -0.78821,3.67832 c 2.13813,-1.92976 4.62055,-3.77798 7.45629,-5.31816 4.55713,-2.48241 10.00213,-4.16756 16.31688,-4.16756 13.84353,0 19.48785,6.92177 21.51727,14.52302 1.92976,7.2298 0.39863,14.98508 -0.15402,17.55809 l 0,-0.009 -10.08367,46.80345 -0.38957,1.8301 -14.80388,0 0.59795,-2.78139 9.78469,-45.45352 c 0.89693,-4.13132 1.81198,-9.44042 0.7248,-13.49925 -0.94223,-3.56961 -3.7055,-6.28758 -10.11085,-6.28758 -6.13356,0 -12.07685,2.94447 -16.93296,7.8187 -5.05542,5.07354 -8.924,12.20368 -10.67256,20.33042 l -8.19921,38.04252 -0.38958,1.8301 -14.80387,0 z m 85.57982,0 27.64175,-128.351612 14.80388,0 -16.58868,77.018212 40.92357,-26.33713 21.56257,0 -52.53837,34.20112 38.82168,43.46941 -20.57504,0 -30.57716,-34.50916 -1.45865,1.05094 -7.21168,33.45822"
           id="path3255"
           style="fill:#113e74;fill-opacity:1;fill-rule:evenodd;stroke:none" /><path
           d="m 127.57632,169.73639 28.34843,0 -8.471,-29.45374 -19.87743,29.45374 z m -14.35994,25.40396 -11.77787,17.30441 -30.187587,0 86.512987,-130.33573 2.94447,0 36.44798,130.33573 -32.02675,0 -4.42123,-17.30441"
           id="path3257"
           style="fill:#113e74;fill-opacity:1;fill-rule:evenodd;stroke:none" /><path
           d="m 303.19343,82.10903 -84.03057,0 -4.90141,25.99285 26.36431,0 -20.71093,104.34288 30.13323,0 21.84342,-104.34288 c 8.67032,0 17.7121,0 26.37337,0"
           id="path3259"
           style="fill:#113e74;fill-opacity:1;fill-rule:evenodd;stroke:none" /><path
           d="m 431.70812,84.709221 2.37369,1.79386 2.2378,2.038478 2.1472,2.301215 2.06565,2.473352 1.94788,2.654551 1.77574,2.890109 1.67608,2.962584 1.56737,3.22533 1.4224,3.27062 1.31369,3.49712 1.06,3.57866 1.00565,3.6602 0.71574,3.78704 0.63419,3.92294 0.43487,3.95012 0.19932,4.01353 0,4.09508 -0.12684,4.14943 -0.40769,4.16755 -0.6342,4.13132 -0.81539,4.17661 -1.06,4.23098 -1.34087,4.12225 -1.5583,4.14038 -1.86634,4.13131 -2.0566,4.00448 -2.37369,4.04071 -2.61831,3.8867 -2.89917,3.8414 -3.25251,3.76892 -3.51524,3.60584 -3.81422,3.46994 -9.55819,7.86399 -10.54573,7.43818 -11.29769,7.05766 -12.19463,6.72245 -12.82882,6.28757 -13.41771,5.84363 -14.01566,5.47218 -14.42337,4.91953 -14.90353,4.54807 -15.10286,4.0679 -15.39277,3.50618 -15.54679,3.09848 -15.60114,2.53678 -15.61927,1.99317 -15.46525,1.46771 -15.37465,0.89693 -15.11192,0.34427 -14.75858,-0.23555 -14.37806,-0.86069 -13.89788,-1.48583 -13.32712,-2.06566 -12.70198,-2.7542 -12.01343,-3.40653 -11.198033,-4.00447 -10.337347,-4.77457 -9.404176,-5.39064 -8.307929,-6.16979 -7.26604,-6.87647 -6.088253,-7.59219 -4.792687,-8.38041 -3.460882,-9.13238 -2.065658,-9.87529 -0.806331,-10.50043 0.253677,-10.11991 1.259327,-9.75751 2.201555,-9.377 3.080367,-8.93306 3.922936,-8.63408 4.638669,-8.29887 5.445001,-7.87306 5.988594,-7.51971 6.668086,-7.25698 7.175442,-6.89459 7.628436,-6.604665 8.108606,-6.242271 8.44383,-5.952355 8.63409,-5.662437 8.99648,-5.354402 9.16862,-5.100724 9.28639,-4.774567 9.25922,-4.55713 9.4223,-4.276273 9.23204,-4.031656 9.20486,-3.714559 9.02366,-3.58772 8.79716,-3.261564 8.46195,-3.116606 8.09955,-2.862929 7.77339,-2.654551 7.24792,-2.446173 6.75869,-2.237795 6.20603,-2.074717 5.52654,-1.88446 4.76551,-1.7395 -7.79152,13.970366 61.51673,-32.8693187 -73.04998,4.5299502 16.32594,7.0304825 -6.03389,1.766681 -6.36911,1.938819 -6.76775,2.074717 -14.42336,4.593369 -15.54679,5.300042 -8.14485,2.862928 -8.23545,3.044127 -8.48007,3.225325 -8.61596,3.370282 -8.64315,3.578661 -8.73374,3.723619 -8.77904,3.913877 -8.74281,4.067895 -8.67938,4.258154 -8.68845,4.47559 -8.54348,4.60243 -8.46195,4.892346 -8.371347,4.982945 -8.045192,5.227563 -7.909293,5.3997 -7.619376,5.608079 -7.347579,5.825515 -7.075782,5.97048 -6.677147,6.26945 -6.37817,6.41441 -5.988594,6.62278 -5.45406,6.83117 -5.046365,7.0486 -4.575249,7.30228 -4.040716,7.46536 -1.603602,3.33404 -1.522063,3.23439 -1.431465,3.18002 -1.304625,3.18003 -1.223087,3.15284 -1.0690682,3.12567 -0.9603494,3.026 -0.8878703,2.98071 -0.7157321,2.98071 -0.5888935,2.98977 -0.462055,2.95352 -0.3805158,2.84481 -0.1993178,2.89011 -0.1358985,2.79045 0.03624,2.81763 0.1721381,2.83575 0.2989767,2.75421 0.3714559,2.69079 0.5435941,2.76327 0.7700915,2.63643 0.8063311,2.69985 0.9965891,2.66361 1.1596672,2.61831 1.2502663,2.64549 1.3952246,2.59113 1.558303,2.56395 1.73044,2.61832 1.90258,2.48241 1.984118,2.61831 2.201556,2.51865 2.364634,2.50959 2.464292,2.56396 7.139202,6.12449 8.280749,5.51748 9.241098,4.9467 10.237688,4.30346 11.107438,3.73268 11.940948,3.14378 12.74728,2.65455 13.363352,2.07472 14.02473,1.47676 14.60456,1.05095 14.96695,0.50736 15.52867,0 15.81859,-0.47112 16.12662,-0.90599 16.2897,-1.35898 16.47996,-1.86634 16.6068,-2.2378 16.61585,-2.65455 16.49808,-3.03507 16.45278,-3.42464 16.2444,-3.8867 15.99979,-4.13131 15.65551,-4.51183 15.27499,-4.89235 14.84917,-5.13696 14.35089,-5.5356 13.74387,-5.78928 13.04625,-6.03389 12.40301,-6.38723 11.60573,-6.55937 10.71786,-6.88552 9.79375,-7.05767 2.86293,-2.60019 2.69985,-2.74515 2.61831,-2.73609 2.53678,-2.87198 2.40993,-2.95353 2.21967,-2.99883 2.11096,-2.95353 2.02942,-3.1166 1.81198,-3.08943 1.7395,-3.18002 1.5583,-3.15285 1.43147,-3.21626 1.25932,-3.23439 1.11437,-3.24344 0.91505,-3.25251 0.80633,-3.18002 0.5889,-3.27063 0.45299,-3.23438 0.20838,-3.19814 0.0997,-3.18909 -0.11778,-3.12567 -0.30804,-3.1166 -0.50735,-3.10755 -0.72479,-3.04412 -0.87882,-2.96259 -1.1053,-2.96259 -1.30463,-2.87199 -1.54018,-2.79045 -1.7395,-2.71797 -1.94788,-2.62737 -2.22874,-2.58207 -2.40993,-2.49147 -1.26839,-1.19591 -1.25932,-1.06907 -1.30463,-1.05095 -1.27744,-0.97846 -1.34993,-0.933174 -2.73609,-1.730441 -1.34992,-0.733852 -1.43147,-0.733852 -1.39522,-0.688552 -1.43147,-0.616074 -1.44052,-0.597953 -2.96259,-1.132488 -3.01695,-1.060008 -3.09848,-0.90599 -3.10755,-0.91505 -3.17096,-0.88787 -3.25251,-0.89693 -3.2978,-0.91505 -3.27968,-0.987529 -3.37935,-1.078129"
           id="path15005"
           style="fill:#f36627;fill-opacity:1;fill-rule:nonzero;stroke:none" /></g></g></g></svg>