<?xml version="1.0" encoding="utf-8"?>
<!-- Generator: Adobe Illustrator 22.1.0, SVG Export Plug-In . SVG Version: 6.00 Build 0)  -->
<svg version="1.1" id="Layer_1" xmlns="http://www.w3.org/2000/svg" xmlns:xlink="http://www.w3.org/1999/xlink" x="0px" y="0px"
	 viewBox="0 0 148 56" style="enable-background:new 0 0 148 56;" xml:space="preserve">
<path style="fill:#00BDF2;" d="M137.1,0H10.9C4.9,0,0,4.9,0,10.9v34.2C0,51.1,4.9,56,10.9,56h126.2c6,0,10.9-4.9,10.9-10.9V10.9
	C148,4.9,143.1,0,137.1,0z"/>
<polygon style="fill:#FFFFFF;" points="94.2,46.2 98.9,46.2 98.9,43.6 98.9,23.2 94.2,23.2 "/>
<path style="fill:#FF0000;" d="M101.8,19.4c-3.9-5.9-11.2-10.1-19-10.1c-7.6,0-14.9,4-19,10.1h5.4c3.7-3.8,8.5-5.9,13.5-5.9
	c5,0,9.8,2.1,13.5,5.9H101.8z"/>
<path style="fill:#FFFFFF;" d="M61.7,39.4l-0.1,0.1c-1.7,1.7-3.6,2.6-5.6,2.6c-4.2,0-7.2-3.1-7.2-7.4c0-4.3,3-7.4,7.2-7.4
	c2,0,3.9,0.9,5.6,2.6l0.1,0.1l2.7-3.2l-0.1-0.1c-2.2-2.6-4.9-3.9-8.2-3.9c-3.3,0-6.3,1.1-8.5,3.1c-2.4,2.2-3.6,5.2-3.6,8.8
	c0,3.6,1.2,6.7,3.6,8.8c2.2,2,5.2,3.1,8.5,3.1c3.3,0,5.9-1.3,8.2-3.9l0.1-0.1L61.7,39.4z"/>
<polygon style="fill:#FFFFFF;" points="67,46.2 71.8,46.2 71.8,44.2 71.8,23.2 67,23.2 "/>
<path style="fill:#FFFFFF;" d="M90.3,41.2c-1.3,0.8-2.4,1.2-3.5,1.2c-1.5,0-2.2-0.8-2.2-2.6V27.5h4.8v-4.3h-4.8V16l-4.6,2.5v4.7h-4
	v4.3h4v13c0,3.5,2.1,6,5.2,6c2.1,0,3.4-0.6,4.2-1.1l0,0l1.1-4.4L90.3,41.2z"/>
</svg>
