<?xml version="1.0" encoding="UTF-8"?>
<svg width="192px" height="45px" viewBox="0 0 192 45" version="1.1" xmlns="http://www.w3.org/2000/svg" xmlns:xlink="http://www.w3.org/1999/xlink">
    <!-- Generator: Sketch 44.1 (41455) - http://www.bohemiancoding.com/sketch -->
    <title>logo</title>
    <desc>Created with Sketch.</desc>
    <defs></defs>
    <g id="Symbols" stroke="none" stroke-width="1" fill="none" fill-rule="evenodd">
        <g id="elements/header_new" transform="translate(-73.000000, -12.000000)">
            <g id="logos/alhilal" transform="translate(73.000000, 12.000000)">
                <g id="Page-1">
                    <path d="M161.796713,31.8215324 L178.823222,31.8215324 L178.823222,14.6352472 L161.796713,14.6352472 L161.796713,31.8215324 Z M148.74777,23.2298122 C148.74777,11.2057851 158.398398,1.44995389 170.312785,1.44995389 C182.224354,1.44995389 191.876672,11.2057851 191.876672,23.2298122 C191.876672,35.2529859 182.224354,44.9994291 170.312785,44.9994291 C158.398398,44.9994291 148.74777,35.2529859 148.74777,23.2298122 L148.74777,23.2298122 Z M152.664482,23.2298122 C152.664482,33.0678595 160.564112,41.041679 170.312785,41.041679 C180.059767,41.041679 187.962496,33.0678595 187.962496,23.2298122 C187.962496,13.3866442 180.059767,5.40770398 170.312785,5.40770398 C160.564112,5.40770398 152.664482,13.3866442 152.664482,23.2298122 L152.664482,23.2298122 Z" id="Fill-1" fill="#F28131"></path>
                    <path d="M5.91767469,38.4827756 L7.56527412,38.0699884 L7.56527412,41.0243613 C7.50244672,41.2616214 7.37031195,41.4943299 7.23338765,41.6971674 C7.07279741,41.9298758 6.86149448,42.1642911 6.61610133,42.398991 C6.37042645,42.6154838 6.0886892,42.8012522 5.77088959,42.9477618 C5.46858552,43.1039439 5.15557544,43.1796168 4.83918451,43.1796168 C4.31543496,43.1796168 3.88494045,42.9796241 3.5646052,42.583337 C3.26089244,42.1776619 3.10790912,41.6883484 3.10790912,41.1131205 C3.10790912,40.7865321 3.20369978,40.4781508 3.38795594,40.1874075 C3.58996155,39.9017849 3.82662084,39.650585 4.11173893,39.4312474 C4.39460313,39.2010993 4.68958203,38.9999687 5.00090169,38.8324072 C5.33053427,38.6659837 5.63650092,38.549345 5.91767469,38.4827756 M7.6883933,42.7133465 L7.6883933,44.3152794 L11.3718261,44.3152794 L11.3718261,42.8817614 L10.0552679,42.8817614 L10.0552679,35.8436118 C10.0552679,35.2991082 9.94567214,34.7816307 9.7222545,34.2977223 C9.5157411,33.7987363 9.21935351,33.3597765 8.83562738,32.9908 C8.4704959,32.6235303 8.0242241,32.3285197 7.49653024,32.119708 C6.98123281,31.9094739 6.41832179,31.8084819 5.7906112,31.8084819 C5.19558213,31.8084819 4.64337712,31.8628184 4.14695609,31.9780347 C3.66490366,32.0747595 3.22736571,32.1896913 2.83518746,32.3197007 C2.46808382,32.4497102 2.1592998,32.5885387 1.92095009,32.7341948 L1.42424732,33.0064466 L1.42424732,35.2322543 L3.54544706,35.2322543 L3.54544706,33.8715644 C3.70237471,33.7153823 4.01876564,33.572002 4.20133138,33.4931998 C4.53209091,33.323647 4.89046069,33.2385861 5.27728593,33.2385861 C6.02614354,33.2385861 6.60398663,33.5142517 6.99334751,34.0798071 C7.37707364,34.6365435 7.56527412,35.2900047 7.56527412,36.0418975 L7.56527412,36.8393079 L5.3905443,37.3442682 C4.90680145,37.4591999 4.37206415,37.6344425 3.79084021,37.8799527 C3.23074656,38.1078249 2.70361616,38.3940164 2.22269068,38.7356825 C1.7417652,39.0605639 1.33888093,39.4406354 1.01967263,39.8761813 C0.703845174,40.2906754 0.54663579,40.7398766 0.54663579,41.2115521 C0.54663579,42.1933086 0.872887523,43.0055122 1.52257362,43.6436112 C2.19113611,44.286262 3.12115077,44.609721 4.32585924,44.609721 C5.1121879,44.609721 5.84893081,44.2686239 6.47523271,43.8145864 C6.76739424,43.601223 7.00827958,43.3895664 7.19986091,43.1824616 C7.39454135,42.9511756 7.5083632,42.7890194 7.5537229,42.6834756 L7.6883933,42.7133465" id="Fill-3" fill="#000000"></path>
                    <polygon id="Fill-4" fill="#000000" points="13.1768321 42.8817329 13.1768321 44.3152509 18.4191171 44.3152509 18.4191171 42.8817329 17.101432 42.8817329 17.101432 27.0054995 13.1768321 27.0054995 13.1768321 28.4370261 14.4902912 28.4370261 14.4902912 42.8817329"></polygon>
                    <path d="M33.6500863,42.8817329 L33.6500863,44.3152509 L38.748967,44.3152509 L38.748967,42.8817329 L37.434381,42.8817329 L37.434381,35.969041 C37.434381,35.535202 37.3616928,35.0706386 37.2151895,34.5850233 C37.0864355,34.0877442 36.8647083,33.6354137 36.5443731,33.2331524 C36.2446046,32.8141066 35.8341135,32.4752854 35.3233238,32.2181113 C34.8336645,31.9472819 34.2222947,31.8084534 33.4796353,31.8084534 C33.0871753,31.8084534 32.7183812,31.8895315 32.386213,32.0457136 C32.0531996,32.1925077 31.7582207,32.3802675 31.5024033,32.6007431 C31.2460224,32.8123996 31.0319021,33.0331597 30.8563798,33.2570491 C30.6929722,33.4687057 30.5926737,33.6265946 30.5459053,33.7304315 L30.4134888,33.7019831 L30.4134888,27.0054995 L26.481282,27.0054995 L26.481282,28.4370261 L27.7989671,28.4370261 L27.7989671,42.8817329 L26.481282,42.8817329 L26.481282,44.3152509 L31.5832619,44.3152509 L31.5832619,42.8817329 L30.4134888,42.8817329 L30.4134888,35.5201243 C30.4298296,35.3901148 30.5197038,35.2006481 30.6647984,34.9696466 C30.8160913,34.721007 30.995558,34.4794795 31.2119322,34.2433573 C31.4435202,34.0103644 31.6999011,33.8137855 31.9782575,33.6430947 C32.2690103,33.4553349 32.5715961,33.3597481 32.8939035,33.3597481 C33.2339604,33.3597481 33.5213324,33.4388348 33.7608091,33.5933099 C34.0126822,33.7472161 34.2163782,33.9409502 34.3710519,34.1810552 C34.518964,34.4038066 34.6302502,34.6550066 34.6956132,34.9406291 C34.7764718,35.2100361 34.818169,35.4683481 34.818169,35.7240998 L34.818169,42.8817329 L33.6500863,42.8817329" id="Fill-5" fill="#000000"></path>
                    <path d="M40.5466197,42.8817329 L40.5466197,44.3152509 L45.7951029,44.3152509 L45.7951029,42.8817329 L44.478263,42.8817329 L44.478263,32.102895 L40.5466197,32.102895 L40.5466197,33.5338527 L41.8651501,33.5338527 L41.8651501,42.8817329 L40.5466197,42.8817329 Z M44.330351,29.8361215 C44.6729435,29.5214815 44.8425493,29.1371428 44.8425493,28.6831053 C44.8425493,28.2284989 44.6729435,27.8441602 44.330351,27.5295202 C44.0007184,27.2100439 43.6116393,27.0572757 43.1560701,27.0572757 C42.2573283,27.0572757 41.4991734,27.7545475 41.4991734,28.6831053 C41.4991734,29.6093873 42.2573283,30.307797 43.1560701,30.307797 C43.6116393,30.307797 44.0007184,30.1521839 44.330351,29.8361215 L44.330351,29.8361215 Z" id="Fill-6" fill="#000000"></path>
                    <polygon id="Fill-7" fill="#000000" points="47.5938826 42.8817329 47.5938826 44.3152509 52.8384214 44.3152509 52.8384214 42.8817329 51.5207363 42.8817329 51.5207363 27.0054995 47.5938826 27.0054995 47.5938826 28.4370261 48.9107225 28.4370261 48.9107225 42.8817329"></polygon>
                    <path d="M59.8907274,38.4827756 L61.5388903,38.0699884 L61.5388903,41.0243613 C61.4754994,41.2616214 61.3433646,41.4943299 61.2103847,41.6971674 C61.0441597,41.9298758 60.8339837,42.1642911 60.5888723,42.398991 C60.34038,42.6154838 60.0569524,42.8012522 59.7422519,42.9477618 C59.4410747,43.1039439 59.1297551,43.1796168 58.8088564,43.1796168 C58.2851068,43.1796168 57.8563027,42.9796241 57.5356857,42.583337 C57.2333817,42.1776619 57.0803983,41.6883484 57.0803983,41.1131205 C57.0803983,40.7865321 57.1728081,40.4781508 57.3590365,40.1874075 C57.5607603,39.9017849 57.7991101,39.650585 58.0825377,39.4312474 C58.3625845,39.2010993 58.6592539,38.9999687 58.9717005,38.8324072 C59.2990792,38.6659837 59.6061728,38.549345 59.8907274,38.4827756 M61.6597556,42.7133465 L61.6597556,44.3152794 L65.3431884,44.3152794 L65.3431884,42.8817614 L64.0277571,42.8817614 L64.0277571,35.8436118 C64.0277571,35.2991082 63.9170344,34.7816307 63.6919263,34.2977223 C63.4856947,33.7987363 63.1890254,33.3597765 62.8081166,32.9908 C62.4356599,32.6235303 61.9905151,32.3285197 61.4633847,32.119708 C60.9571029,31.9094739 60.3848945,31.8084819 59.76141,31.8084819 C59.1638453,31.8084819 58.617275,31.8628184 58.1166279,31.9780347 C57.6317581,32.0747595 57.197601,32.1896913 56.8107758,32.3197007 C56.4360652,32.4497102 56.1340429,32.5885387 55.8985106,32.7341948 L55.3950461,33.0064466 L55.3950461,35.2322543 L57.5179363,35.2322543 L57.5179363,33.8715644 C57.6709196,33.7153823 57.9912549,33.572002 58.1710032,33.4931998 C58.506834,33.323647 58.866049,33.2385861 59.2497751,33.2385861 C59.9997597,33.2385861 60.5736585,33.5142517 60.9649915,34.0798071 C61.3450551,34.6365435 61.5388903,35.2900047 61.5388903,36.0418975 L61.5388903,36.8393079 L59.3602161,37.3442682 C58.8750646,37.4591999 58.3434264,37.6344425 57.7622025,37.8799527 C57.2015453,38.1078249 56.674415,38.3940164 56.1940529,38.7356825 C55.7086197,39.0605639 55.3102432,39.4406354 54.9893445,39.8761813 C54.674644,40.2906754 54.5163076,40.7398766 54.5163076,41.2115521 C54.5163076,42.1933086 54.8453767,43.0055122 55.4930907,43.6436112 C56.1593993,44.286262 57.092513,44.609721 58.2972215,44.609721 C59.0846771,44.609721 59.8242374,44.2686239 60.4525115,43.8145864 C60.7415739,43.601223 60.9748523,43.3895664 61.1695328,43.1824616 C61.3642132,42.9511756 61.4831063,42.7890194 61.5262121,42.6834756 L61.6597556,42.7133465" id="Fill-8" fill="#000000"></path>
                    <polygon id="Fill-9" fill="#000000" points="67.143264 42.8817329 67.143264 44.3152509 72.3906202 44.3152509 72.3906202 42.8817329 71.070963 42.8817329 71.070963 27.0054995 67.143264 27.0054995 67.143264 28.4370261 68.4589769 28.4370261 68.4589769 42.8817329"></polygon>
                    <path d="M88.9861556,36.3246753 C89.099414,36.8541012 89.159424,37.3744235 89.159424,37.8882028 C89.159424,38.4511978 89.094061,39.0440638 88.9591089,39.6733438 C88.7506233,40.7836873 88.3071689,41.9105309 87.4520963,42.6678289 C87.0630172,43.008357 86.5953334,43.1796168 86.0636952,43.1796168 C85.7270192,43.1796168 85.381891,43.1358061 85.0556393,43.1039439 C84.8933586,43.0723661 84.7330501,43.0433486 84.5885189,43.027702 C84.4623006,42.999538 84.3501692,42.9645464 84.2346569,42.907365 L84.2346569,35.5201527 C84.294667,35.1750729 84.7434744,34.5531895 84.9598486,34.2960154 C85.359352,33.8354348 85.9095849,33.3597765 86.547438,33.3597765 C86.9596196,33.3597765 87.3264415,33.5082775 87.6467768,33.7958914 C87.9764093,34.0681432 88.2522301,34.4189128 88.4677591,34.8516139 C88.697375,35.2868754 88.8723338,35.7741975 88.9861556,36.3246753 M91.4606539,40.4992026 C91.7181617,39.6733438 91.8393088,38.8005449 91.8393088,37.8882028 C91.8393088,36.5215386 91.4727686,35.0416496 90.7309544,33.886642 C90.3655412,33.2937761 89.8753184,32.7976349 89.2662025,32.4070375 C88.6652569,32.0107504 87.929641,31.8084819 87.0630172,31.8084819 C86.736202,31.8084819 86.4099502,31.8929738 86.0977854,32.0685008 C85.7774501,32.231795 85.4945859,32.4223997 85.2559545,32.6462891 C85.0164778,32.8579456 84.81898,33.0787057 84.653882,33.3060089 C84.4921648,33.5142517 84.4008819,33.6593388 84.3755256,33.73046 L84.2346569,33.7020115 L84.2346569,27.0055279 L80.3066762,27.0055279 L80.3066762,28.4367701 L81.6252066,28.4367701 L81.6252066,43.9625185 C81.903563,44.0401828 82.2210808,44.1141488 82.5904384,44.192951 L83.8345901,44.3898144 C84.2526881,44.4558148 84.6589532,44.5041772 85.0480324,44.534617 C85.4331672,44.5858243 85.7774501,44.609721 86.0636952,44.609721 C86.9787777,44.609721 87.7927167,44.4347629 88.4948059,44.0774502 C89.2166167,43.7207065 89.8248874,43.239643 90.324971,42.6410874 C90.8256181,42.0271696 91.19892,41.3099838 91.4606539,40.4992026" id="Fill-10" fill="#000000"></path>
                    <path d="M99.0852245,38.4827756 L100.73874,38.0699884 L100.73874,41.0243613 C100.672814,41.2616214 100.540679,41.4943299 100.406572,41.6971674 C100.241474,41.9298758 100.034397,42.1642911 99.7861868,42.398991 C99.5371311,42.6154838 99.2559573,42.8012522 98.9409751,42.9477618 C98.6383893,43.1039439 98.3270696,43.1796168 98.0067343,43.1796168 C97.4821396,43.1796168 97.0569981,42.9796241 96.7301829,42.583337 C96.4306962,42.1776619 96.2777128,41.6883484 96.2777128,41.1131205 C96.2777128,40.7865321 96.3689957,40.4781508 96.5583231,40.1874075 C96.7575114,39.9017849 96.9986785,39.650585 97.2815427,39.4312474 C97.5598991,39.2010993 97.8571319,38.9999687 98.1684515,38.8324072 C98.4947033,38.6659837 98.8063047,38.549345 99.0852245,38.4827756 M100.858197,42.7133465 L100.858197,44.3152794 L104.539939,44.3152794 L104.539939,42.8817614 L103.22479,42.8817614 L103.22479,35.8436118 C103.22479,35.2991082 103.114349,34.7816307 102.889804,34.2977223 C102.684418,33.7987363 102.38634,33.3597765 102.003177,32.9908 C101.640018,32.6235303 101.18783,32.3285197 100.663517,32.119708 C100.148783,31.9094739 99.5853081,31.8084819 98.9621054,31.8084819 C98.3600329,31.8084819 97.8120539,31.8628184 97.3161963,31.9780347 C96.8290726,32.0747595 96.3943521,32.1896913 96.0052729,32.3197007 C95.6339432,32.4497102 95.3313574,32.5885387 95.0941347,32.7341948 L94.5940511,33.0064466 L94.5940511,35.2322543 L96.7186316,35.2322543 L96.7186316,33.8715644 C96.8693611,33.7153823 97.1916685,33.572002 97.3652186,33.4931998 C97.7007677,33.323647 98.0605462,33.2385861 98.4468079,33.2385861 C99.1990464,33.2385861 99.7740721,33.5142517 100.166532,34.0798071 C100.546596,34.6365435 100.73874,35.2900047 100.73874,36.0418975 L100.73874,36.8393079 L98.560348,37.3442682 C98.0726609,37.4591999 97.5421496,37.6344425 96.9606439,37.8799527 C96.3971694,38.1078249 95.8793364,38.3940164 95.390804,38.7356825 C94.9059342,39.0605639 94.5075577,39.4406354 94.186659,39.8761813 C93.8736489,40.2906754 93.7136222,40.7398766 93.7136222,41.2115521 C93.7136222,42.1933086 94.0426913,43.0055122 94.6929408,43.6436112 C95.3581225,44.286262 96.2898276,44.609721 97.494536,44.609721 C98.2803012,44.609721 99.0218336,44.2686239 99.6481356,43.8145864 C99.9391701,43.601223 100.175266,43.3895664 100.364593,43.1824616 C100.561528,42.9511756 100.675913,42.7890194 100.720709,42.6834756 L100.858197,42.7133465" id="Fill-11" fill="#000000"></path>
                    <path d="M110.27163,35.5090294 C110.311919,35.3505715 110.397003,35.1511477 110.525757,34.9238445 C110.675641,34.6877223 110.858771,34.452169 111.072891,34.2237279 C111.520853,33.768268 112.096442,33.3597481 112.75768,33.3597481 C113.09351,33.3597481 113.378347,33.4388348 113.620641,33.5933099 C113.878712,33.7304315 114.07621,33.9164845 114.232011,34.1571585 C114.380486,34.379341 114.486701,34.628834 114.555445,34.9150255 C114.640811,35.1855704 114.681382,35.451848 114.681382,35.7223929 L114.681382,42.8817329 L113.509918,42.8817329 L113.509918,44.3152509 L118.607108,44.3152509 L118.607108,42.8817329 L117.290832,42.8817329 L117.290832,36.0418691 C117.290832,35.5562538 117.221525,35.0646644 117.075021,34.5594197 C116.77807,33.4903265 116.126975,32.6914937 115.136669,32.1925077 C114.646728,31.9384629 114.046064,31.8084534 113.342003,31.8084534 C112.568916,31.8084534 111.868517,32.1353262 111.265881,32.6041569 C111.006683,32.8141066 110.79538,33.0331597 110.61873,33.2570491 C110.438982,33.4675677 110.331077,33.6265946 110.286562,33.7304315 L110.15161,33.7019831 L110.15161,32.102895 L106.342804,32.102895 L106.342804,33.5338527 L107.659081,33.5338527 L107.659081,42.8817329 L106.342804,42.8817329 L106.342804,44.3152509 L111.444221,44.3152509 L111.444221,42.8817329 L110.27163,42.8817329 L110.27163,35.5090294" id="Fill-12" fill="#000000"></path>
                    <path d="M120.409213,42.8817329 L120.409213,44.3152509 L125.340178,44.3152509 L125.340178,42.8817329 L124.336912,42.8817329 L124.336912,27.0054995 L120.409213,27.0054995 L120.409213,28.4370261 L121.72887,28.4370261 L121.72887,42.8817329 L120.409213,42.8817329 Z M127.063001,42.8817329 L127.063001,44.3152509 L132.746205,44.3152509 L132.746205,42.8817329 L131.473034,42.8817329 L126.946362,37.1715575 L130.546682,33.5338527 L131.873946,33.5338527 L131.873946,32.102895 L127.160482,32.102895 L127.160482,33.5338527 L128.546066,33.5338527 L124.525675,37.8449326 L128.231365,42.8817329 L127.063001,42.8817329 Z" id="Fill-13" fill="#000000"></path>
                    <path d="M36.6716338,10.0248683 L35.3576113,10.0248683 L35.3576113,8.5913503 L39.2853102,8.5913503 L39.2853102,11.899053 C40.2919574,12.0262177 41.3017037,12.3391507 41.9964678,12.7473862 C42.7030648,13.1496474 43.2995026,13.6608663 43.7778924,14.2781979 C44.2613535,14.8773226 44.638318,15.5333441 44.8876554,16.2533747 C45.1271321,16.9551983 45.2496878,17.5981335 45.2496878,18.1986805 C45.2496878,18.634511 45.1781265,19.0111686 45.0581065,19.3755934 L50.0673947,19.3755934 L50.0673947,4.93088664 L48.7505548,4.93088664 L48.7505548,3.49850656 L52.6827616,3.49850656 L52.6827616,19.3755934 L53.9973476,19.3755934 L53.9973476,20.8074045 L14.9234904,20.8074045 L14.9234904,19.3755934 L23.2786902,19.3755934 L23.2786902,4.93088664 L21.9663581,4.93088664 L21.9663581,3.49850656 L25.8940571,3.49850656 L25.8940571,19.3755934 L30.9030636,19.3755934 C30.7816349,19.0111686 30.7112006,18.634511 30.7112006,18.1986805 C30.7112006,17.5981335 30.8343197,16.9551983 31.0704155,16.2533747 C31.3225704,15.5333441 31.6998166,14.8773226 32.1824325,14.2781979 C32.6673023,13.6608663 33.2603592,13.1496474 33.9647023,12.7473862 C34.656649,12.3417111 35.6694944,12.0290625 36.6716338,11.899053 L36.6716338,10.0248683 Z M39.2853102,13.4130802 L39.2853102,19.3755934 L42.3289177,19.3755934 C42.7129256,18.64333 42.6751728,17.5258744 42.2393253,16.2474005 C41.6696526,14.5806051 40.5196011,13.5553225 39.2853102,13.4130802 L39.2853102,13.4130802 Z M36.6716338,19.3755934 L36.6716338,13.4130802 C35.4356525,13.5581674 34.2954618,14.5837344 33.7204361,16.2474005 C33.286279,17.5258744 33.2490897,18.64333 33.6353515,19.3755934 L36.6716338,19.3755934 Z M3.07503038,20.1923488 C3.07503038,23.0329278 4.45131684,25.47978 6.1544185,25.47978 C7.86061928,25.47978 9.24028659,23.6917941 9.24028659,20.2611941 L9.23155273,4.93088664 L7.91640326,4.93088664 L7.91640326,3.49850656 L11.8181824,3.49850656 L11.8181824,20.346255 C11.8181824,24.896302 9.2940984,27.0054711 6.18174702,27.0054711 C3.06883216,27.0054711 0.543339464,23.9552269 0.543339464,20.1923488 L3.07503038,20.1923488 Z M14.9234904,16.4909193 L16.2386398,16.4909193 L16.2386398,4.93088664 L14.9234904,4.93088664 L14.9234904,3.49850656 L18.8494989,3.49850656 L18.8494989,16.4909193 L20.1716918,16.4909193 L20.1716918,17.9232994 L14.9234904,17.9232994 L14.9234904,16.4909193 Z M55.7928591,19.3755934 L57.1125164,19.3755934 L57.1125164,4.93088664 L55.7928591,4.93088664 L55.7928591,3.49850656 L59.7197129,3.49850656 L59.7197129,19.3755934 L61.0379615,19.3755934 L61.0379615,20.8074045 L55.7928591,20.8074045 L55.7928591,19.3755934 Z M116.843912,15.600198 C116.843912,17.0880526 116.221273,18.4271217 115.238292,19.3755934 L123.488967,19.3755934 C122.567404,18.4316735 121.981954,17.22745 121.712332,15.9028896 C121.552023,15.0662203 121.479053,14.3143275 121.479053,13.6321334 C121.479053,12.9926119 121.583578,12.2907884 121.812349,11.5300765 C122.050698,10.7633904 122.401743,10.0644117 122.868863,9.42318334 C123.346408,8.7634635 123.93862,8.21895993 124.639018,7.78625882 C125.337445,7.35384219 126.155046,7.14218563 127.100557,7.14218563 C128.042404,7.14218563 128.863668,7.34786801 129.56125,7.76236211 C130.277144,8.1583647 130.870483,8.67868708 131.330278,9.31877749 C131.811203,9.94037639 132.163375,10.6422 132.386229,11.4222568 C132.629087,12.1906498 132.746289,12.9240511 132.746289,13.6321334 C132.746289,14.2571461 132.66036,14.9888405 132.491599,15.8266477 C132.320866,16.6374289 132.012082,17.4180547 131.562711,18.1665338 C131.134471,18.9067628 130.554655,19.5383186 129.819321,20.0589255 C129.103427,20.5553512 128.198205,20.8074045 127.100557,20.8074045 L94.4086116,20.8074045 L94.4086116,22.9933844 C94.4086116,23.4622151 94.3457842,23.934175 94.234498,24.4030057 C94.124057,24.888621 93.9319122,25.3253049 93.6594723,25.7082212 C93.0272539,26.6655119 92.1138617,27.0054711 90.997337,27.0054711 C90.4361164,27.0054711 90.1093012,26.9423155 89.7410706,26.8105991 C89.4384848,26.7172881 89.218448,26.6276755 89.0863132,26.561675 L89.908986,25.1713987 C89.9822377,25.2348388 90.0901431,25.3076668 90.2203057,25.3952881 C90.4273825,25.5130647 90.6485463,25.5753668 90.8916855,25.5753668 C91.2058226,25.5753668 91.4365654,25.3742362 91.5895487,25.0140787 C91.7391512,24.6781023 91.8157837,24.2985999 91.8157837,23.8767092 L91.8157837,10.0248683 L90.3524404,10.0248683 L90.3524404,8.5913503 L94.4086116,8.5913503 L94.4086116,19.3755934 L99.7923287,19.3755934 L99.7923287,10.0248683 L98.4721079,10.0248683 L98.4721079,8.5913503 L102.398398,8.5913503 L102.398398,10.391 L111.679105,10.3850259 C114.528595,10.3850259 116.843912,12.7203601 116.843912,15.600198 L116.843912,15.600198 Z M102.398398,19.3755934 L110.236892,19.3755934 C112.257511,19.3755934 113.892996,17.5921593 113.892996,15.6605087 C113.892996,13.7180477 112.251595,12.1650462 110.236892,12.1650462 L102.398398,12.1650462 L102.398398,19.3755934 Z M129.768045,12.1018906 C129.699301,11.5346282 129.56125,11.0032109 129.34882,10.5087767 C129.133009,9.99158362 128.848173,9.56201184 128.474026,9.22375962 C128.114529,8.85677446 127.655579,8.67868708 127.100557,8.67868708 C126.562157,8.67868708 126.113349,8.85136925 125.750754,9.19474219 C124.986964,9.9309884 124.615352,11.0199955 124.453635,12.0458471 C124.369396,12.6114025 124.324881,13.1320094 124.324881,13.6070987 C124.324881,14.1149038 124.358972,14.6955369 124.429406,15.3489981 C124.513645,15.9996144 124.654514,16.618084 124.846095,17.200424 C125.059089,17.7693932 125.340262,18.2592758 125.692434,18.6689336 C126.056157,19.0729018 126.524967,19.2677738 127.100557,19.2677738 C127.669948,19.2677738 128.142703,19.0817208 128.497692,18.6976666 C128.872402,18.319302 129.15583,17.8476265 129.34882,17.2820711 C129.56125,16.7131018 129.699301,16.1051582 129.768045,15.4551108 C129.855102,14.786572 129.899616,14.1709472 129.899616,13.6070987 C129.899616,13.1647251 129.855102,12.6646012 129.768045,12.1018906 L129.768045,12.1018906 Z M84.3604526,16.025218 L84.2240918,15.9996144 C84.1778869,16.1202359 84.0699815,16.292918 83.8933323,16.5224971 C83.5160861,17.0220521 83.0202285,17.4268738 82.457881,17.6814875 C82.1555769,17.8430748 81.8408764,17.9232994 81.5112438,17.9232994 C80.6753294,17.9232994 79.9656333,17.7113584 79.3593347,17.2943039 C78.7643057,16.8735512 78.2763367,16.3412804 77.8912019,15.6940779 C77.5057854,15.0434616 77.2181316,14.3205861 77.0234512,13.5220378 C76.8439846,12.7229205 76.7558008,11.9485534 76.7558008,11.2017812 C76.7558008,10.6043635 76.8741305,9.95374717 77.1178332,9.25533742 C77.3770314,8.54241895 77.7424447,7.88355256 78.226751,7.28101412 C78.707113,6.6653894 79.3035508,6.15758434 80.0101478,5.75048685 C80.729423,5.33030306 81.5470245,5.11978443 82.4643609,5.11978443 C82.8027274,5.11978443 83.2027943,5.15136223 83.6716051,5.21537127 C84.1415428,5.26629402 84.606691,5.33030306 85.0628236,5.41195014 C85.5113493,5.47823506 85.9150788,5.55362349 86.2759842,5.63527057 L86.9490545,5.79315954 L86.9490545,20.8074045 L68.5713337,20.8074045 L68.5713337,19.3755934 L69.8907093,19.3755934 L69.8907093,10.0248683 L68.5713337,10.0248683 L68.5713337,8.5913503 L72.5029771,8.5913503 L72.5029771,19.3755934 L84.3604526,19.3755934 L84.3604526,16.025218 Z M84.3604526,14.193706 L84.3604526,6.83664914 C84.2345161,6.80620929 84.1147777,6.78999366 83.9857421,6.7726401 L83.4769246,6.67506187 C83.2935137,6.6431996 83.1143288,6.61702701 82.9359891,6.60223381 C82.7517329,6.56781117 82.5959322,6.55045761 82.4643609,6.55045761 C81.9730112,6.55045761 81.5326559,6.72171735 81.1458306,7.06167648 C80.7832348,7.39509246 80.4690978,7.80446583 80.2065186,8.28410691 C79.9628159,8.75123066 79.7647546,9.24850978 79.6151522,9.77708222 C79.4835809,10.3059391 79.4187813,10.7810285 79.4187813,11.2017812 C79.4187813,11.6646377 79.4680853,12.1940636 79.5644394,12.7869295 C79.7422157,13.8216001 80.1360843,14.9982285 80.8283127,15.8055959 C81.1624531,16.1745724 81.56252,16.368591 82.0237239,16.368591 C82.3009533,16.368591 82.5660681,16.2806852 82.8176595,16.1111324 C83.0813655,15.9478382 83.3245048,15.7512593 83.5394703,15.5333441 C83.8274058,15.2189886 84.2649437,14.6215709 84.3604526,14.193706 L84.3604526,14.193706 Z M82.6167808,0.000199139237 C83.5422877,0.000199139237 84.2869192,0.734738439 84.2869192,1.63484779 C84.2869192,2.53325023 83.5422877,3.26380675 82.6167808,3.26380675 C81.6884566,3.26380675 80.9452337,2.53325023 80.9452337,1.63484779 C80.9452337,0.734738439 81.6884566,0.000199139237 82.6167808,0.000199139237 L82.6167808,0.000199139237 Z" id="Fill-14" fill="#000000"></path>
                </g>
            </g>
        </g>
    </g>
</svg>