<svg id="Layer_1" data-name="Layer 1" xmlns="http://www.w3.org/2000/svg" viewBox="0 0 180 80"><defs><style>.cls-1{fill:#d91f2b}</style></defs><g id="Artwork_13" data-name="Artwork 13"><path class="cls-1" d="M77.52 48.22l-2.9-4.45H71.7v4.45h-3.82V32.83h6.71c3.82 0 6.37 2.08 6.37 5.41a5.14 5.14 0 0 1-2.59 4.59L82 48.22h-4.48zm-5.82-7.9h2.83c1.47 0 2.61-.81 2.61-2.08s-1.14-2-2.61-2H71.7v4.12zm16-4.16V39h6.81v3.26h-6.84v2.67h7.78v3.34h-11.6V32.83h11.61v3.33m17 4.32c0 4.58-3.46 7.74-8.29 7.74H98V32.83h6.17c4.83 0 8.31 3.17 8.31 7.65zm-3.86 0a4.25 4.25 0 0 0-4.43-4.21h-2.35v8.51h2.35a4.28 4.28 0 0 0 4.43-4.3zm6 7.74h3.82V32.83h-3.82m18.4 3.42h-4.4v12h-3.81v-12h-4.39v-3.42H133m-71.34 9.86a3.59 3.59 0 0 1-3.53 2.25 4.16 4.16 0 0 1-4.25-4.41 4.16 4.16 0 0 1 4.24-4.42 3.59 3.59 0 0 1 3.54 2.26h4a7.37 7.37 0 0 0-7.55-5.84 8 8 0 1 0 0 16 7.37 7.37 0 0 0 7.55-5.83zm3.13-28.85v15.39H61v-5.78h-6.26v5.78h-3.82V13.84h3.82V20H61v-6.16m47.69 15.39h-3.82v-7.72l-3.41 5.27h-2.12l-3.44-5.32v7.77h-3.8v-15.4H95l5.45 8.22 5.44-8.21h2.85m7 3.31V20h6.81v3.26h-6.81v2.64h7.79v3.34h-11.67V13.83h11.61v3.32m-45-4a10.75 10.75 0 0 0-11 10.5 10 10 0 0 0 1.67 5.57h5.29a6.69 6.69 0 1 1 8 0h5.31a10.08 10.08 0 0 0 1.67-5.57 10.75 10.75 0 0 0-10.96-10.49z"/><path class="cls-1" d="M74.84 25.38a3.78 3.78 0 0 0 7.21 0zM100 66.72h3.83v-15.4H100zm-45.79-6.58v6.4h-3.77v-15.4h6.7a8.13 8.13 0 0 1 4.64 1.47 3.67 3.67 0 0 1-.07 6.13c-1.61 1-4.72 1.4-7.51 1.4zm0-2.33h2.82c1.46 0 2.61-.38 2.61-1.65s-1.15-1.65-2.61-1.65h-2.77zm18.46-1.59l1.88 4.65h-3.71zm3.2 7.78L77 66.9h3.82l-6.19-15.4h-3.82l-6.23 15.4h3.82l1.16-2.9zM86 51.32l10.07 12.59-3 2.39-9.65-12z"/><path class="cls-1" d="M82.57 66.72h3.82v-15.4h-3.82M93 66.72h3.82v-15.4H93m22 .09l-12.44 13.72-1.06-4.47 8.74-9.4M54.2 58v-6.39h-3.76V67h6.7c1.93 0 4.48-.33 5.5-1.38 1.84-1.88 2.08-4 .44-5.45S57.66 58 54.2 58zm0 2.46h2.83c1.46 0 2.61-.14 2.61 1.13s-1.15 2-2.61 2h-2.77v-3.18z"/><path class="cls-1" d="M115.06 66.75l-8-10.86-1.8 4.49 5 6.52"/></g></svg>