<svg data-name="Layer 1" xmlns="http://www.w3.org/2000/svg" viewBox="0 0 180 80"><g data-name="700651998752"><path d="M52.63 36.38V40.02h5.59a6.68 6.68 0 0 1 0 3.4h-5.57v7.18a10.77 10.77 0 0 1-2.07.17 10.66 10.66 0 0 1-2.06-.17V33l.18-.17h11.12a6.37 6.37 0 0 1 .18 1.64 1.79 1.79 0 0 1-.53 1.43 2.51 2.51 0 0 1-1.68.48zM162 45.44l.65 1.9a4.07 4.07 0 0 0 1.25 2.19 3.56 3.56 0 0 1-2.73 1.28 1.88 1.88 0 0 1-1.29-.39 3.44 3.44 0 0 1-.79-1.42l-.78-2.25a2.1 2.1 0 0 0-.61-1.07 1.31 1.31 0 0 0-.9-.28 6.69 6.69 0 0 0-.81 0v5.2a10.44 10.44 0 0 1-2 .17 10.55 10.55 0 0 1-2-.17v-19l.18-.18h1.57a2.23 2.23 0 0 1 1.72.55 3 3 0 0 1 .48 1.9v8.17h.42a.79.79 0 0 0 .72-.48l1.37-2.6a2.38 2.38 0 0 1 2.28-1.47H163l.15.21-2 3.87a3.89 3.89 0 0 1-1.31 1.53 3.45 3.45 0 0 1 2.16 2.34zM149 42v5.33a4.3 4.3 0 0 0 .62 2.56 3.43 3.43 0 0 1-2.36.89 2.26 2.26 0 0 1-1.84-.61 3.06 3.06 0 0 1-.5-1.9v-5.52a2.75 2.75 0 0 0-.24-1.29.94.94 0 0 0-.9-.43 2.36 2.36 0 0 0-.89.22 3.11 3.11 0 0 0-1 .67v8.68a9.27 9.27 0 0 1-1 .13h-2.14a8.58 8.58 0 0 1-1-.13v-13l.18-.17h1.54A2.08 2.08 0 0 1 141.7 39a5.52 5.52 0 0 1 3.61-1.6 3.33 3.33 0 0 1 2.79 1.25A5.62 5.62 0 0 1 149 42zm-21.36 4.76c0 .81.48 1.21 1.42 1.21a2.63 2.63 0 0 0 1.62-.75v-2.06h-1.4a1.46 1.46 0 0 0-1.6 1.63zm7.86 2a3.67 3.67 0 0 1-.5 1.16 2.75 2.75 0 0 1-.74.91 3.38 3.38 0 0 1-2.82-1.37 5.34 5.34 0 0 1-3.63 1.54 4.64 4.64 0 0 1-1.75-.31 3.76 3.76 0 0 1-1.29-.89 3.58 3.58 0 0 1-.78-1.25 4.72 4.72 0 0 1 .15-3.47 4.05 4.05 0 0 1 1.1-1.4 4.75 4.75 0 0 1 1.65-.83 6.38 6.38 0 0 1 2-.3h1.84v-.5a1.47 1.47 0 0 0-1.73-1.61 15.26 15.26 0 0 0-3.83.85 5.11 5.11 0 0 1-1-2.82 9.72 9.72 0 0 1 1.38-.44c.52-.15 1-.26 1.59-.37a14.18 14.18 0 0 1 1.59-.24 8.86 8.86 0 0 1 1.4-.1 5.71 5.71 0 0 1 1.75.26 4.09 4.09 0 0 1 1.48.8 3.67 3.67 0 0 1 1 1.36 4.84 4.84 0 0 1 .39 2V47a1.92 1.92 0 0 0 .79 1.74zm-20.33-6h-2.14v5.08h1.51a7.8 7.8 0 0 0 1.57-.13 2.23 2.23 0 0 0 1.22-.76 2.71 2.71 0 0 0 .48-1.68 2.6 2.6 0 0 0-.63-1.75 2.42 2.42 0 0 0-1.97-.74zm-2.14-7.15v4.18h1.83a2.17 2.17 0 0 0 1.75-.6 2.32 2.32 0 0 0 .5-1.5 2.1 2.1 0 0 0-.52-1.47 2.19 2.19 0 0 0-1.73-.59h-1c-.31.02-.57.02-.79 0zm-3.95-2.84l3.6-.08h2.4a7.36 7.36 0 0 1 4.46 1.19 4.06 4.06 0 0 1 1.63 3.54 3.79 3.79 0 0 1-.65 2.14A3.68 3.68 0 0 1 118.9 41a4 4 0 0 1 1.24.66 5 5 0 0 1 1 1.07 5.72 5.72 0 0 1 .66 1.27 5.25 5.25 0 0 1-1.46 5.44 8 8 0 0 1-4.83 1.29h-2.55c-1 0-2.34 0-3.84-.07l-.18-.19V33zm-10.15 9.85h3.41v-.28a2.65 2.65 0 0 0-.45-1.59 1.4 1.4 0 0 0-1.27-.62 1.33 1.33 0 0 0-1.22.59 3.79 3.79 0 0 0-.47 1.9zm6.78 2.82h-6.77a3 3 0 0 0 .59 1.79 2.27 2.27 0 0 0 1.79.64 7.11 7.11 0 0 0 1.44-.16 14.54 14.54 0 0 0 1.88-.59 4.15 4.15 0 0 1 1.07 2.4A8.57 8.57 0 0 1 100.6 51a6.22 6.22 0 0 1-2.73-.52 4.76 4.76 0 0 1-1.8-1.48 5.72 5.72 0 0 1-1-2.22 11.5 11.5 0 0 1-.3-2.78 9.67 9.67 0 0 1 .35-2.69 6.33 6.33 0 0 1 1.07-2.14 4.77 4.77 0 0 1 1.83-1.42 5.85 5.85 0 0 1 2.58-.54 5.75 5.75 0 0 1 2.25.43 4.94 4.94 0 0 1 1.7 1.14 5 5 0 0 1 1.09 1.73 6.67 6.67 0 0 1 .36 2.22 9.45 9.45 0 0 1-.29 2.71zm-12.1-7.84a6.44 6.44 0 0 1 .17 1.4 6.13 6.13 0 0 1-.17 1.42l-3.09-.06v6c0 .81.38 1.22 1.14 1.22h1.46a4.76 4.76 0 0 1 .35 1.73 4.12 4.12 0 0 1-.11 1.12 27.36 27.36 0 0 1-3.55.26q-3.25 0-3.26-3.61v-6.64h-2a4.75 4.75 0 0 1-.18-1.4 5.41 5.41 0 0 1 .18-1.46l2 .06v-1.5a2.82 2.82 0 0 1 .5-1.88 2.19 2.19 0 0 1 1.69-.55h1.59l.19.17v3.78zm-19.68 1.9a4.34 4.34 0 0 1 .48-1.16 3.59 3.59 0 0 1 .74-.92 3.68 3.68 0 0 1 3.32 2.38 3.38 3.38 0 0 1 3.27-2.35 8.34 8.34 0 0 1 1.71.21 7.78 7.78 0 0 1-.28 1.91 7.1 7.1 0 0 1-.73 1.89 4.84 4.84 0 0 0-1.33-.26A2.45 2.45 0 0 0 79 42.53v8.07a10.7 10.7 0 0 1-2 .17 11.23 11.23 0 0 1-2-.17v-8.39a3.23 3.23 0 0 0-1.07-2.71zm-7.58.78a1.54 1.54 0 0 0-.94.27 1.8 1.8 0 0 0-.55.74 3.77 3.77 0 0 0-.3 1.09 10.8 10.8 0 0 0-.07 1.31c0 .74 0 1.36.06 1.88a4.94 4.94 0 0 0 .27 1.33 1.76 1.76 0 0 0 .54.79 1.52 1.52 0 0 0 .94.26 1.46 1.46 0 0 0 1.51-1 8.7 8.7 0 0 0 .37-2.84 8.67 8.67 0 0 0-.37-2.86 1.43 1.43 0 0 0-1.46-.97zm4.15-1.5a7.26 7.26 0 0 1 1.87 5.35A9.11 9.11 0 0 1 72 47a6 6 0 0 1-1.16 2.16 4.94 4.94 0 0 1-1.88 1.38 7.15 7.15 0 0 1-5.15 0 5.21 5.21 0 0 1-1.88-1.4 6.11 6.11 0 0 1-1.14-2.18 9.43 9.43 0 0 1-.39-2.8 9.61 9.61 0 0 1 .39-2.82 6 6 0 0 1 1.14-2.18 5.06 5.06 0 0 1 1.86-1.4 6.4 6.4 0 0 1 2.59-.5 5.74 5.74 0 0 1 4.12 1.52z" fill="#9c2550"/><path d="M38.3 40.68a.74.74 0 0 0-.68-.44h-2.1a.72.72 0 0 0-.52.2 6 6 0 0 1-4.5 1.61 5.39 5.39 0 0 1-5.26-5.32 3.89 3.89 0 0 1 3.93-3.83 3.06 3.06 0 0 1 2.31 1.1 2.5 2.5 0 0 1 .33.51.85.85 0 0 1 0 .5.82.82 0 0 1-1 .48 2.35 2.35 0 0 0-.77-.13 2.21 2.21 0 0 0-1.44 3.9.48.48 0 0 0 .11.09h.05l.09.08a3.94 3.94 0 0 0 3.6.11A4.72 4.72 0 0 0 35 36a4.94 4.94 0 0 0-1.18-4 6.16 6.16 0 0 0-4.61-2.16h-.09a7 7 0 0 0-7 6.88 7.73 7.73 0 0 0 .26 2.17h-.39a9.14 9.14 0 0 0-7.91 3.61.73.73 0 0 0-.09.83.77.77 0 0 0 .68.44h2.1a.72.72 0 0 0 .52-.2 5.86 5.86 0 0 1 4.5-1.6 5.36 5.36 0 0 1 5.26 5.31 3.88 3.88 0 0 1-3.93 3.83A3.2 3.2 0 0 1 20.85 50a2.54 2.54 0 0 1-.33-.54.79.79 0 0 1 0-.48.82.82 0 0 1 1-.48 2.4 2.4 0 0 0 .78.15 2.22 2.22 0 0 0 1.43-3.91.19.19 0 0 0-.11-.08.15.15 0 0 0-.09-.07 3.86 3.86 0 0 0-3.6-.11 4.69 4.69 0 0 0-2.6 3.52 5 5 0 0 0 1.18 4 6.22 6.22 0 0 0 4.61 2.15h.09a7 7 0 0 0 7-6.87 8.39 8.39 0 0 0-.26-2.2 2.58 2.58 0 0 0 .39 0h.62a9.16 9.16 0 0 0 7.29-3.64.76.76 0 0 0 .05-.76z" fill="#12b2c2"/></g></svg>