<svg xmlns="http://www.w3.org/2000/svg" viewBox="-5 -5 165.09 28" width="165.09" height="28" y="52.97"><g data-name="Слой 2"><g data-name="Layer 1" fill="#0157a5"><path d="M55.25 8.15h1.1a13.79 13.79 0 0 0 3.85-.35 4.16 4.16 0 0 0 1.74-1.13A3.67 3.67 0 0 0 62.85 5a1.57 1.57 0 0 0-.05-1 1.15 1.15 0 0 0-.65-.58 7.85 7.85 0 0 0-2.2-.18h-2.57zm-4.08 9.53H47.6L55 .32h7a7.33 7.33 0 0 1 3 .44 2.62 2.62 0 0 1 1.41 1.47 4.12 4.12 0 0 1 .1 2.44 8 8 0 0 1-1.07 2.56 8.21 8.21 0 0 1-1.69 2 7.27 7.27 0 0 1-1.84 1.13 10.26 10.26 0 0 1-2.42.58 28.23 28.23 0 0 1-3.17.12H54zm18.77-6.88a3.73 3.73 0 0 0 .43 3A2.92 2.92 0 0 0 73 15a5.66 5.66 0 0 0 3-1 9.6 9.6 0 0 0 2.84-2.9 11.25 11.25 0 0 0 1.7-3.78 3.93 3.93 0 0 0-.39-3.23A2.94 2.94 0 0 0 77.54 3a6.37 6.37 0 0 0-4.79 2.44 11.83 11.83 0 0 0-2.81 5.37m-3.56.07a14.67 14.67 0 0 1 1.17-3.25 15.44 15.44 0 0 1 2.71-4A12.26 12.26 0 0 1 74 1a10.55 10.55 0 0 1 4.5-1 5.63 5.63 0 0 1 4.77 2 6.19 6.19 0 0 1 .82 5.32 14.3 14.3 0 0 1-2.46 5.32 13.33 13.33 0 0 1-4.38 4A10.84 10.84 0 0 1 71.91 18a6.06 6.06 0 0 1-3.83-1.1 4.54 4.54 0 0 1-1.73-2.73 8 8 0 0 1 0-3.29m18.05 1.21l3.43-.18a3.42 3.42 0 0 0 .08 2.18q.58.92 2.69.92a4.73 4.73 0 0 0 2.68-.63 2.48 2.48 0 0 0 1.11-1.52 1.35 1.35 0 0 0-.39-1.3 9.2 9.2 0 0 0-2.19-1.27 17.74 17.74 0 0 1-2.63-1.47 3.11 3.11 0 0 1-1.13-1.53A4 4 0 0 1 88 5.1a6.14 6.14 0 0 1 2.39-3.65A7.88 7.88 0 0 1 95.34 0q3.06 0 4.42 1.43a4.32 4.32 0 0 1 1 3.82l-3.45.15a2.28 2.28 0 0 0-.48-1.91 2.83 2.83 0 0 0-2.13-.66 3.88 3.88 0 0 0-2.22.52 2.13 2.13 0 0 0-.92 1.32 1.29 1.29 0 0 0 .31 1.24 9.16 9.16 0 0 0 2.27 1.36 10.8 10.8 0 0 1 3.35 2.1 3.45 3.45 0 0 1 .51 3.06 6.64 6.64 0 0 1-2.68 3.93A8.78 8.78 0 0 1 89.93 18a8.17 8.17 0 0 1-3.72-.75 3.41 3.41 0 0 1-1.86-2.09 6 6 0 0 1 0-3.07m22.02 5.59h-3.57l6.19-14.45h-5.09l1.22-2.91h13.67l-1.21 2.91h-5.02l-6.19 14.45zm6.93-3.28h3.37l-1.37 3.28h-3.37l1.37-3.28zm5.25 3.28L125.98.32h3.57l-3.16 7.38 9.64-7.38h4.78l-9.27 6.81 3.4 10.55h-4.05l-2.46-8.27-4.05 2.97-2.27 5.3h-3.56zm17.15 0l1.16-2.74 12.6-11.71h-8.13l1.25-2.91h12.52L154 3l-12.7 11.8h9.11l-1.24 2.91z"/><path d="M47.95.21c-4.43.29-8.86.58-14.95.9s-13.74.68-19.52.54A86.79 86.79 0 0 1 0 .21a14.58 14.58 0 0 0 4.84 3.08 28.92 28.92 0 0 0 10.5 1.42A136.72 136.72 0 0 0 32.45 3C38.15 2.17 43 1.19 47.95.21m-1.13 3.22c-6.52 1.12-13 2.24-17.48 3s-6.81 1-9.12 1.17a43.86 43.86 0 0 1-6.41 0 36.44 36.44 0 0 1-4.72-.79 30.16 30.16 0 0 0 6 2.14 40.9 40.9 0 0 0 9.23.91A86.56 86.56 0 0 0 33.81 9l5.27-.65a10.37 10.37 0 0 0-1.7 3.34 6.77 6.77 0 0 0 .22 3.6 5.75 5.75 0 0 0 1.48 2.16A32.5 32.5 0 0 1 40.79 12a27.82 27.82 0 0 1 3-5 43.31 43.31 0 0 1 3-3.6" fill-rule="evenodd"/></g></g></svg>