<svg viewBox="0 0 626 152" xmlns="http://www.w3.org/2000/svg" fill-rule="evenodd" clip-rule="evenodd" stroke-linejoin="round" stroke-miterlimit="1.414"><path d="M-.178 1.417a1.054 1.054 0 1 1 .049.001l-.049-.001z" fill="url(#_Radial1)" fill-rule="nonzero" transform="matrix(71.03672 0 0 -71.03672 85.15 101.75)"/><path d="M-.097.613a.477.477 0 1 1 .022 0h-.022zm.057-.897c-.001.011.015.014.015.014.141.028.1.12.05.167-.021.02-.217.19-.217.19-.188.161-.173.287-.173.287.009.155.145.194.248.185C-.105.558-.099.55-.101.54-.103.529-.119.529-.119.529A.166.166 0 0 1-.203.508C-.286.453-.262.358-.151.253A.893.893 0 0 1-.107.211L-.041.15.09.029c.15-.124.099-.238.042-.278a.285.285 0 0 0-.156-.047l-.001-.001c-.006 0-.015.004-.015.013zm.035.46C-.054.186-.064.23-.064.23a.147.147 0 0 0-.001.06c.006.052.02.077.037.117.021.054-.031.086-.023.106.012.027.049-.007.091-.01.036-.002.058 0 .086-.004C.163.494.207.482.227.459.245.437.218.411.184.428.16.439.129.432.147.407.169.383.179.382.201.376.262.36.263.302.222.272.176.237.128.252.109.319.099.352.076.369.051.36.027.35.042.306.06.265.092.184.028.176.003.176h-.008zm-.178-.445a.304.304 0 0 0-.171.07.335.335 0 0 0-.097.156c-.015.054-.022.117.004.112.008-.002.022-.036.036-.062a.17.17 0 0 1 .04-.049c.005-.004.023.036.049.059.016.013.032.017.035-.021.003-.046-.005-.1.008-.1.013 0 .041.009.103.014.024.002.037-.002.015-.033-.011-.016-.026-.038-.062-.064.053-.049.117-.043.118-.064.001-.012-.023-.019-.054-.019l-.024.001z" fill="url(#_Radial2)" fill-rule="nonzero" transform="matrix(158.93304 0 0 -158.93304 87.887 97.505)"/><path d="M186.558 52.734c3.779 3.025 9.766 4.917 13.925 4.917 5.104 0 8.196-2.208 8.196-6.43 0-3.274-1.33-5.353-5.488-7.433-4.787-2.458-8.692-3.975-12.35-7.062-3.275-2.896-5.604-6.425-5.604-11.659 0-7.308 6.046-12.408 16.133-12.408 5.542 0 10.204.88 14.554 2.771v7.75c0 1.137-1.075 1.517-1.954.758-3.529-2.962-7.187-4.35-11.346-4.35-4.47 0-6.991 2.08-6.991 5.48 0 2.458.883 4.162 2.52 5.487 3.15 2.583 7.059 4.47 10.526 6.112 6.554 3.088 10.395 6.742 10.395 14.426 0 9.579-8.129 13.55-18.462 13.55-7.625 0-17.267-3.655-16.008-6.805l1.954-5.104zM224.687 13.326h10.775v17.579c2.65-2.267 5.983-3.654 9.958-3.654 7.938 0 13.171 4.6 13.171 11.279v25.333h-9.896V39.851c0-3.588-1.829-5.23-5.733-5.23-2.583 0-4.98 1.138-7.5 2.963v26.28h-9.892V19.625c0-2.142-.316-3.217-1.579-4.538-.754-.946-.25-1.762.696-1.762M277.558 17.234c0 3.4-2.521 5.988-5.988 5.988-3.466 0-5.987-2.588-5.987-5.988 0-3.404 2.52-5.987 5.987-5.987s5.988 2.583 5.988 5.987m-.38 11.213v35.416h-9.891V34.688c0-2.016-.442-3.087-1.58-4.408-.753-.95-.25-1.833.634-1.833h10.838zM285.245 28.447h10.521v3.466c2.588-2.516 5.738-4.662 10.15-4.662 7.5 0 13.234 4.225 13.234 11.975v24.637h-9.892V40.105c0-3.967-1.767-5.733-5.738-5.733-2.77 0-5.166 1.133-7.433 3.154v26.337h-9.896v-29.05c0-2.141-.375-3.212-1.575-4.537-.82-.946-.316-1.83.63-1.83M326.65 13.326h10.77v17.579c2.65-2.267 5.988-3.654 9.963-3.654 7.937 0 13.167 4.6 13.167 11.279v25.333h-9.892V39.851c0-3.588-1.83-5.23-5.738-5.23-2.579 0-4.979 1.138-7.5 2.963v26.28h-9.891V19.625c0-2.142-.313-3.217-1.575-4.538-.759-.946-.254-1.762.696-1.762M389.1 48.047h-6.425c-4.855 0-6.742 2.204-6.742 5.546 0 2.77 1.633 4.662 4.537 4.662 3.4 0 6.425-1.58 8.63-4.096v-6.112zm-6.113-14.117c-3.846 0-7.875 1.762-10.712 3.596-1.384.941-2.205.437-2.205-1.013v-6.612c3.717-1.642 9.325-2.65 13.55-2.65 9.763 0 15.371 3.779 15.371 11.596v25.016h-9.704v-3.845c-2.77 3.4-6.737 4.979-10.962 4.979-7.059 0-11.909-4.538-11.909-11.217 0-7.558 5.234-12.287 16.321-12.287h6.363v-2.646c0-3.467-2.205-4.917-6.113-4.917M406.304 28.447h10.52v3.466c2.588-2.516 5.734-4.662 10.146-4.662 7.5 0 13.238 4.225 13.238 11.975v24.637h-9.896V40.105c0-3.967-1.767-5.733-5.733-5.733-2.775 0-5.167 1.133-7.438 3.154v26.337h-9.891v-29.05c0-2.141-.38-3.212-1.575-4.537-.825-.946-.321-1.83.629-1.83M493.708 49.243c0-5.23-2.896-7.5-8.82-7.5h-6.238v15.125h6.3c5.92 0 8.758-2.33 8.758-7.625M478.65 34.747h5.42c4.721 0 7.305-1.763 7.305-6.488 0-4.792-2.584-6.554-7.496-6.554h-5.23v13.042zm-11.221-20.038h17.333c10.334 0 16.888 4.73 16.888 12.354 0 4.788-1.892 8.317-5.546 10.521 5.104 1.954 8.192 5.671 8.192 12.225 0 9.263-7.5 14.054-18.78 14.054H468.38V21.072c0-2.138-.38-3.209-1.58-4.538-.758-.942-.25-1.825.63-1.825M531.079 48.047h-6.425c-4.854 0-6.746 2.204-6.746 5.546 0 2.77 1.638 4.662 4.542 4.662 3.4 0 6.425-1.58 8.629-4.096v-6.112zm-6.113-14.117c-3.845 0-7.875 1.762-10.712 3.596-1.383.941-2.204.437-2.204-1.013v-6.612c3.716-1.642 9.325-2.65 13.55-2.65 9.762 0 15.37 3.779 15.37 11.596v25.016h-9.704v-3.845c-2.77 3.4-6.737 4.979-10.962 4.979-7.058 0-11.908-4.538-11.908-11.217 0-7.558 5.233-12.287 16.32-12.287h6.363v-2.646c0-3.467-2.204-4.917-6.113-4.917M548.287 28.447h10.521v3.466c2.588-2.516 5.733-4.662 10.146-4.662 7.5 0 13.233 4.225 13.233 11.975v24.637h-9.891V40.105c0-3.967-1.767-5.733-5.738-5.733-2.77 0-5.162 1.133-7.433 3.154v26.337h-9.892v-29.05c0-2.141-.38-3.212-1.575-4.537-.825-.946-.32-1.83.63-1.83M590.57 63.863V19.626c0-2.142-.316-3.217-1.579-4.538-.758-.946-.25-1.762.696-1.762h10.775v28.987l12.542-13.866h11.342l-13.55 15.125 15.187 20.291h-10.9l-10.9-14.812c-1.137-1.575-1.642-1.825-2.837-1.825h-.884v16.637h-9.891z" fill="#707271" fill-rule="nonzero"/><path d="M186.558 52.813c3.779 3.03 9.766 4.917 13.925 4.917 5.104 0 8.196-2.208 8.196-6.43 0-3.274-1.33-5.353-5.488-7.432-4.787-2.459-8.696-3.976-12.35-7.059-3.275-2.9-5.604-6.429-5.604-11.658 0-7.313 6.046-12.413 16.13-12.413 5.545 0 10.207.884 14.557 2.771v7.75c0 1.138-1.075 1.517-1.958.758-3.529-2.962-7.183-4.35-11.342-4.35-4.475 0-6.991 2.08-6.991 5.484 0 2.458.883 4.158 2.516 5.483 3.155 2.583 7.063 4.471 10.53 6.113 6.55 3.087 10.395 6.741 10.395 14.425 0 9.579-8.129 13.55-18.462 13.55-7.625 0-17.267-3.654-16.008-6.8l1.954-5.109zM224.687 13.405h10.775v17.58c2.646-2.268 5.983-3.655 9.958-3.655 7.938 0 13.167 4.6 13.167 11.28v25.333h-9.892V39.934c0-3.592-1.829-5.233-5.733-5.233-2.583 0-4.983 1.137-7.5 2.962v26.28h-9.892V19.705c0-2.142-.316-3.213-1.579-4.538-.758-.945-.254-1.762.696-1.762M277.554 17.31c0 3.4-2.517 5.987-5.988 5.987-3.466 0-5.983-2.588-5.983-5.988 0-3.4 2.517-5.987 5.983-5.987 3.471 0 5.988 2.587 5.988 5.987m-.38 11.217v35.412h-9.891V34.763c0-2.016-.438-3.087-1.575-4.408-.754-.95-.25-1.83.633-1.83h10.834zM285.245 28.526h10.521v3.462c2.588-2.516 5.734-4.662 10.146-4.662 7.5 0 13.233 4.225 13.233 11.975v24.637h-9.891V40.184c0-3.97-1.767-5.737-5.734-5.737-2.775 0-5.166 1.133-7.437 3.154v26.337h-9.892v-29.05c0-2.141-.379-3.212-1.575-4.537-.825-.946-.32-1.825.63-1.825M326.645 13.405h10.775v17.58c2.646-2.268 5.984-3.655 9.959-3.655 7.937 0 13.166 4.6 13.166 11.28v25.333h-9.891V39.934c0-3.592-1.83-5.233-5.734-5.233-2.583 0-4.983 1.137-7.5 2.962v26.28h-9.891V19.705c0-2.142-.317-3.213-1.58-4.538-.758-.945-.254-1.762.696-1.762M389.095 48.126h-6.425c-4.854 0-6.745 2.204-6.745 5.546 0 2.77 1.637 4.662 4.541 4.662 3.4 0 6.425-1.579 8.63-4.096v-6.112zm-6.112-14.117c-3.846 0-7.875 1.763-10.713 3.596-1.383.942-2.204.437-2.204-1.013V29.98c3.717-1.642 9.325-2.65 13.55-2.65 9.763 0 15.371 3.783 15.371 11.596v25.017h-9.704v-3.846c-2.77 3.404-6.738 4.979-10.963 4.979-7.058 0-11.908-4.538-11.908-11.217 0-7.558 5.233-12.287 16.32-12.287h6.363v-2.646c0-3.467-2.204-4.917-6.112-4.917M406.295 28.526h10.521v3.462c2.588-2.516 5.738-4.662 10.15-4.662 7.5 0 13.234 4.225 13.234 11.975v24.637h-9.892V40.184c0-3.97-1.767-5.737-5.738-5.737-2.77 0-5.166 1.133-7.433 3.154v26.337h-9.896v-29.05c0-2.141-.375-3.212-1.575-4.537-.82-.946-.316-1.825.63-1.825M493.7 49.322c0-5.23-2.896-7.5-8.821-7.5h-6.238v15.125h6.3c5.925 0 8.759-2.33 8.759-7.625M478.64 34.826h5.421c4.725 0 7.309-1.759 7.309-6.488 0-4.791-2.584-6.554-7.496-6.554h-5.234v13.042zm-11.216-20.034h17.329c10.333 0 16.887 4.725 16.887 12.35 0 4.788-1.891 8.317-5.545 10.521 5.104 1.954 8.191 5.671 8.191 12.225 0 9.263-7.496 14.055-18.779 14.055h-17.137V21.155c0-2.142-.38-3.213-1.575-4.538-.759-.945-.255-1.825.629-1.825M531.07 48.126h-6.424c-4.855 0-6.742 2.204-6.742 5.546 0 2.77 1.633 4.662 4.537 4.662 3.4 0 6.425-1.579 8.63-4.096v-6.112zm-6.112-14.117c-3.846 0-7.875 1.763-10.712 3.596-1.384.942-2.205.437-2.205-1.013V29.98c3.717-1.642 9.325-2.65 13.55-2.65 9.763 0 15.371 3.783 15.371 11.596v25.017h-9.704v-3.846c-2.77 3.404-6.737 4.979-10.962 4.979-7.055 0-11.909-4.538-11.909-11.217 0-7.558 5.234-12.287 16.321-12.287h6.363v-2.646c0-3.467-2.205-4.917-6.113-4.917M548.279 28.526h10.52v3.462c2.588-2.516 5.734-4.662 10.147-4.662 7.5 0 13.233 4.225 13.233 11.975v24.637h-9.892V40.184c0-3.97-1.766-5.737-5.737-5.737-2.771 0-5.163 1.133-7.434 3.154v26.337h-9.891v-29.05c0-2.141-.38-3.212-1.575-4.537-.825-.946-.321-1.825.629-1.825M590.558 63.943V19.705c0-2.142-.312-3.213-1.575-4.538-.758-.945-.25-1.762.696-1.762h10.77v28.988l12.547-13.863h11.337l-13.55 15.12 15.192 20.293h-10.9L604.17 49.134c-1.138-1.579-1.638-1.825-2.834-1.825h-.887v16.634h-9.892zM189.245 139.738V95.572c0-2.209-.391-3.317-1.629-4.684-.78-.97-.258-1.883.654-1.883h11.575v21.138l17.238-21.071h12.029l-18.013 22.179 19.446 28.487H219.23l-14.375-21.008c-1.3-1.758-2.209-2.537-3.838-2.537h-1.17v23.545h-10.6zM254.816 123.413h-6.633c-5.009 0-6.963 2.275-6.963 5.721 0 2.867 1.696 4.813 4.684 4.813 3.512 0 6.637-1.621 8.912-4.225v-6.309zm-6.312-14.57c-3.967 0-8.13 1.82-11.055 3.708-1.433.975-2.275.454-2.275-1.038v-6.833c3.838-1.687 9.625-2.73 13.984-2.73 10.083 0 15.867 3.9 15.867 11.968v25.82h-10.013v-3.966c-2.863 3.512-6.958 5.133-11.317 5.133-7.287 0-12.291-4.68-12.291-11.575 0-7.804 5.395-12.683 16.845-12.683h6.567v-2.73c0-3.579-2.275-5.074-6.312-5.074M282.729 132.58h14.829v7.158h-27.642v-3.904l15.154-25.496h-14.312v-7.154h26.537v4.1c0 1.1-.52 2.142-.975 2.925L282.73 132.58zM324.295 123.413h-6.633c-5.008 0-6.962 2.275-6.962 5.721 0 2.867 1.695 4.813 4.683 4.813 3.512 0 6.633-1.621 8.912-4.225v-6.309zm-6.312-14.57c-3.967 0-8.13 1.82-11.054 3.708-1.434.975-2.275.454-2.275-1.038v-6.833c3.837-1.687 9.625-2.73 13.983-2.73 10.083 0 15.87 3.9 15.87 11.968v25.82h-10.016v-3.966c-2.862 3.512-6.958 5.133-11.316 5.133-7.288 0-12.292-4.68-12.292-11.575 0-7.804 5.396-12.683 16.846-12.683h6.566v-2.73c0-3.579-2.279-5.074-6.312-5.074M342.45 139.738V94.08c0-2.212-.325-3.317-1.63-4.683-.775-.975-.258-1.825.717-1.825h11.125v29.92l12.942-14.304h11.708l-13.983 15.609 15.67 20.941h-11.25l-11.25-15.287c-1.17-1.625-1.691-1.883-2.929-1.883h-.908v17.17H342.45zM381.808 87.572h11.125v18.146c2.73-2.342 6.175-3.771 10.275-3.771 8.196 0 13.592 4.75 13.592 11.641v26.15h-10.213v-24.783c0-3.704-1.883-5.4-5.917-5.4-2.666 0-5.137 1.175-7.737 3.058v27.125H382.72V94.08c0-2.217-.325-3.317-1.629-4.687-.775-.975-.258-1.821.717-1.821M423.504 130.763c3.12 2.08 8.587 3.121 11.575 3.121 3.258 0 4.879-1.041 4.879-3.316 0-1.692-.846-2.667-3.9-4.23-3.446-1.754-6.504-3.508-9.558-5.983-1.955-1.687-3.842-3.77-3.842-7.675 0-5.654 4.88-10.73 13.333-10.73 3.642 0 8.454.847 11.771 2.21v7.158c0 1.362-.908 1.625-2.142.712-2.47-1.754-5.858-2.992-8.979-2.992-2.662 0-4.162 1.434-4.162 3.446 0 1.367.783 2.475 2.15 3.513 2.012 1.629 5.85 3.516 8.258 4.879 4.746 2.537 6.958 4.812 6.958 10.212 0 5.85-5.333 9.821-14.05 9.821-6.633 0-14.695-2.666-13.916-5.07l1.625-5.076zM469.175 91.543v11.645h8.587v7.155h-8.587v20.487c0 2.533 1.491 2.925 3.25 2.925 1.696 0 3.904-.717 5.858-1.687l1.167 5.329c.258 1.108-1.688 2.016-4.163 2.733-2.016.52-3.904.78-6.566.78-5.663 0-9.759-2.797-9.759-8.517v-22.05h-6.179v-7.155h6.18V91.543h10.212zM505.47 123.413h-6.633c-5.008 0-6.962 2.275-6.962 5.721 0 2.867 1.696 4.813 4.683 4.813 3.513 0 6.633-1.621 8.913-4.225v-6.309zm-6.312-14.57c-3.967 0-8.13 1.82-11.054 3.708-1.433.975-2.275.454-2.275-1.038v-6.833c3.837-1.687 9.625-2.73 13.983-2.73 10.084 0 15.871 3.9 15.871 11.968v25.82h-10.017v-3.966c-2.862 3.512-6.958 5.133-11.316 5.133-7.288 0-12.292-4.68-12.292-11.575 0-7.804 5.396-12.683 16.846-12.683h6.567v-2.73c0-3.579-2.28-5.074-6.313-5.074M522.391 103.184h10.863v3.575c2.667-2.604 5.917-4.812 10.47-4.812 7.742 0 13.66 4.358 13.66 12.358v25.43H547.17v-24.517c0-4.1-1.817-5.921-5.917-5.921-2.863 0-5.333 1.17-7.67 3.25v27.187h-10.218v-29.983c0-2.213-.387-3.317-1.625-4.683-.841-.975-.325-1.884.65-1.884" fill="#707271" fill-rule="nonzero"/><defs><radialGradient id="_Radial1" cx="0" cy="0" r="1" gradientUnits="userSpaceOnUse" gradientTransform="matrix(1 0 0 -1 0 .703)"><stop offset="0" stop-color="#fff"/><stop offset="1" stop-color="#d3a244"/></radialGradient><radialGradient id="_Radial2" cx="0" cy="0" r="1" gradientUnits="userSpaceOnUse" gradientTransform="matrix(1 0 0 -1 0 .26)"><stop offset="0" stop-color="#18b8ec"/><stop offset=".22" stop-color="#1892d1"/><stop offset=".57" stop-color="#0e5dab"/><stop offset="1" stop-color="#0e5dab"/></radialGradient></defs></svg>