<svg viewBox="0 0 503 279" xmlns="http://www.w3.org/2000/svg" fill-rule="evenodd" clip-rule="evenodd" stroke-linejoin="round" stroke-miterlimit="1.414"><path d="M-.179-1.419A1.055 1.055 0 1 0-.13-1.42l-.049.001z" fill="url(#_Radial1)" fill-rule="nonzero" transform="matrix(68.19255 0 0 68.18797 259.967 97.784)"/><path d="M-.097-.614a.478.478 0 1 0 .022 0h-.022zm.057.897c0-.01.015-.013.015-.013.142-.028.1-.12.05-.168-.021-.02-.217-.189-.217-.189-.188-.162-.173-.288-.173-.288.01-.155.145-.193.248-.184.012.001.019.008.016.018-.002.011-.018.012-.018.012a.168.168 0 0 0-.084.02c-.083.056-.058.15.052.256a24.163 24.163 0 0 1 .11.103l.132.12C.24.095.189.209.132.248a.285.285 0 0 1-.155.048h-.002C-.031.296-.039.293-.04.283zm.035-.46a.076.076 0 0 1-.058-.054.163.163 0 0 1-.002-.06c.007-.052.021-.076.037-.117.021-.054-.031-.086-.022-.106.011-.027.049.008.091.01.035.002.057 0 .085.004.037.005.082.018.102.041.018.021-.01.047-.043.031C.16-.44.13-.433.148-.407c.021.024.032.024.054.03.061.016.062.075.021.105-.047.034-.095.02-.114-.047C.1-.353.076-.37.052-.361c-.024.01-.01.054.008.095.032.081-.032.09-.057.09l-.008-.001zm-.178.445a.297.297 0 0 1-.17-.069A.329.329 0 0 1-.45.043c-.016-.054-.022-.117.003-.112.008.001.022.036.037.061a.144.144 0 0 0 .039.049c.005.004.023-.036.05-.059.015-.012.031-.016.034.021.003.046-.005.101.009.101.012 0 .04-.01.103-.015.023-.002.036.003.014.034-.011.016-.026.038-.061.063.053.05.116.044.117.065.001.012-.023.018-.054.018L-.183.268z" fill="url(#_Radial2)" fill-rule="nonzero" transform="matrix(152.51012 0 0 152.50012 262.504 93.659)"/><path d="M2.35 219.58c4.296 3.441 11.104 5.591 15.837 5.591 5.8 0 9.317-2.508 9.317-7.308 0-3.73-1.508-6.092-6.238-8.454-5.45-2.796-9.887-4.517-14.045-8.03-3.73-3.295-6.375-7.308-6.375-13.258 0-8.312 6.875-14.116 18.345-14.116 6.305 0 11.605 1.004 16.555 3.15v8.82c0 1.288-1.221 1.717-2.225.859-4.009-3.371-8.167-4.946-12.896-4.946-5.092 0-7.954 2.362-7.954 6.233 0 2.796 1 4.73 2.862 6.234 3.583 2.937 8.03 5.091 11.971 6.95 7.45 3.516 11.82 7.67 11.82 16.416 0 10.892-9.245 15.405-20.995 15.405-8.67 0-19.638-4.155-18.2-7.738l2.22-5.808zM45.704 174.763h12.254v19.996c3.013-2.58 6.809-4.159 11.325-4.159 9.03 0 14.98 5.234 14.98 12.83v28.808H73.007V204.93c0-4.08-2.075-5.946-6.52-5.946-2.938 0-5.659 1.291-8.53 3.37v29.884h-11.25V181.93c0-2.438-.358-3.655-1.792-5.163-.862-1.07-.287-2.004.788-2.004M105.833 179.209c0 3.87-2.862 6.808-6.808 6.808-3.942 0-6.808-2.937-6.808-6.808s2.866-6.809 6.808-6.809c3.946 0 6.808 2.938 6.808 6.809m-.433 12.758v40.275H94.154V199.06c0-2.292-.504-3.513-1.792-5.013-.858-1.079-.287-2.079.713-2.079H105.4zM114.575 191.963h11.967v3.942c2.937-2.867 6.52-5.305 11.537-5.305 8.525 0 15.05 4.8 15.05 13.613v28.025h-11.25v-27.017c0-4.516-2.008-6.525-6.525-6.525-3.15 0-5.875 1.292-8.454 3.588v29.954h-11.25V199.2c0-2.437-.43-3.658-1.792-5.158-.933-1.079-.358-2.079.717-2.079M161.662 174.763h12.25v19.996c3.013-2.58 6.809-4.159 11.325-4.159 9.03 0 14.98 5.234 14.98 12.83v28.808h-11.25V204.93c0-4.08-2.08-5.946-6.525-5.946-2.938 0-5.659 1.291-8.53 3.37v29.884h-11.25V181.93c0-2.438-.358-3.655-1.787-5.163-.863-1.07-.292-2.004.787-2.004M232.68 214.25h-7.31c-5.516 0-7.67 2.509-7.67 6.309 0 3.154 1.867 5.3 5.167 5.3 3.866 0 7.304-1.792 9.812-4.658v-6.95zm-6.95-16.054c-4.376 0-8.96 2.009-12.184 4.088-1.575 1.075-2.509.5-2.509-1.146v-7.525c4.23-1.863 10.609-3.013 15.409-3.013 11.108 0 17.483 4.3 17.483 13.188v28.45h-11.033v-4.37c-3.154 3.866-7.667 5.662-12.467 5.662-8.029 0-13.546-5.159-13.546-12.759 0-8.6 5.946-13.97 18.559-13.97h7.237v-3.013c0-3.942-2.508-5.592-6.95-5.592M252.246 191.963h11.967v3.942c2.937-2.867 6.52-5.305 11.537-5.305 8.525 0 15.05 4.8 15.05 13.613v28.025h-11.25v-27.017c0-4.516-2.008-6.525-6.525-6.525-3.154 0-5.875 1.292-8.454 3.588v29.954h-11.25V199.2c0-2.437-.434-3.658-1.792-5.158-.933-1.079-.358-2.079.717-2.079M351.646 215.613c0-5.95-3.296-8.53-10.033-8.53h-7.092v17.2h7.162c6.742 0 9.963-2.653 9.963-8.67M334.52 199.13h6.162c5.371 0 8.313-2.005 8.313-7.384 0-5.441-2.942-7.454-8.53-7.454h-5.945v14.838zm-12.758-22.792h19.708c11.754 0 19.204 5.375 19.204 14.046 0 5.45-2.15 9.462-6.308 11.97 5.808 2.226 9.32 6.45 9.32 13.9 0 10.538-8.529 15.984-21.354 15.984h-19.495V183.58c0-2.434-.434-3.655-1.792-5.163-.863-1.075-.283-2.079.717-2.079M394.142 214.25h-7.309c-5.516 0-7.666 2.509-7.666 6.309 0 3.154 1.862 5.3 5.162 5.3 3.867 0 7.304-1.792 9.813-4.658v-6.95zm-6.95-16.054c-4.375 0-8.959 2.009-12.184 4.088-1.575 1.075-2.504.5-2.504-1.146v-7.525c4.225-1.863 10.604-3.013 15.404-3.013 11.109 0 17.484 4.3 17.484 13.188v28.45h-11.034v-4.37c-3.154 3.866-7.666 5.662-12.466 5.662-8.03 0-13.546-5.159-13.546-12.759 0-8.6 5.946-13.97 18.558-13.97h7.238v-3.013c0-3.942-2.509-5.592-6.95-5.592M413.708 191.963h11.967v3.942c2.938-2.867 6.521-5.305 11.538-5.305 8.525 0 15.05 4.8 15.05 13.613v28.025h-11.25v-27.017c0-4.516-2.009-6.525-6.525-6.525-3.155 0-5.875 1.292-8.455 3.588v29.954h-11.25V199.2c0-2.437-.433-3.658-1.791-5.158-.934-1.079-.359-2.079.716-2.079M461.796 232.238V181.93c0-2.438-.358-3.655-1.792-5.163-.862-1.07-.287-2.004.792-2.004h12.25v32.967l14.263-15.767h12.9l-15.409 17.2 17.271 23.075h-12.4l-12.396-16.842c-1.291-1.796-1.862-2.079-3.225-2.079h-1.004v18.921h-11.25zM142.142 277.676V251.47c0-1.312-.234-1.97-.963-2.779-.467-.579-.158-1.12.383-1.12h6.871v12.545l10.23-12.504h7.137l-10.692 13.158 11.542 16.905h-6.713l-8.529-12.463c-.775-1.046-1.316-1.508-2.279-1.508h-.696v13.97h-6.291zM181.062 267.988h-3.933c-2.97 0-4.133 1.35-4.133 3.396 0 1.7 1.008 2.858 2.779 2.858 2.083 0 3.942-.962 5.287-2.512v-3.742zm-3.741-8.642c-2.354 0-4.825 1.08-6.563 2.2-.85.58-1.35.271-1.35-.616v-4.054c2.28-1.005 5.713-1.621 8.296-1.621 5.983 0 9.417 2.316 9.417 7.1v15.32h-5.942v-2.354c-1.696 2.088-4.13 3.05-6.712 3.05-4.325 0-7.296-2.779-7.296-6.866 0-4.638 3.204-7.53 9.996-7.53h3.895v-1.62c0-2.121-1.345-3.009-3.741-3.009M197.637 273.434h8.8v4.246h-16.4v-2.317l8.992-15.13h-8.492v-4.245h15.746v2.43c0 .662-.308 1.274-.579 1.737l-8.067 13.279zM222.312 267.988h-3.933c-2.97 0-4.133 1.35-4.133 3.396 0 1.7 1.008 2.858 2.779 2.858 2.083 0 3.937-.962 5.287-2.512v-3.742zm-3.741-8.642c-2.354 0-4.825 1.08-6.563 2.2-.85.58-1.35.271-1.35-.616v-4.054c2.28-1.005 5.713-1.621 8.296-1.621 5.983 0 9.421 2.316 9.421 7.1v15.32h-5.946v-2.354c-1.696 2.088-4.129 3.05-6.712 3.05-4.325 0-7.296-2.779-7.296-6.866 0-4.638 3.204-7.53 9.996-7.53h3.895v-1.62c0-2.121-1.35-3.009-3.741-3.009M233.096 277.676v-27.092c0-1.313-.192-1.971-.963-2.78-.462-.578-.158-1.078.425-1.078h6.6v17.75l7.68-8.488h6.945l-8.296 9.263 9.3 12.425h-6.675l-6.679-9.071c-.696-.963-1.004-1.117-1.737-1.117h-.538v10.188h-6.062zM256.462 246.73h6.596v10.766c1.625-1.391 3.671-2.237 6.1-2.237 4.863 0 8.063 2.817 8.063 6.904v15.517h-6.058V262.97c0-2.195-1.117-3.2-3.509-3.2-1.583 0-3.05.696-4.596 1.813v16.096H257v-27.092c0-1.317-.192-1.97-.967-2.78-.458-.578-.154-1.078.43-1.078M281.217 272.35c1.85 1.238 5.096 1.85 6.866 1.85 1.934 0 2.9-.612 2.9-1.962 0-1.008-.504-1.583-2.316-2.512-2.046-1.042-3.863-2.084-5.671-3.546-1.163-1.009-2.28-2.242-2.28-4.554 0-3.363 2.892-6.371 7.909-6.371 2.163 0 5.017.504 6.988 1.312v4.242c0 .817-.542.967-1.275.429-1.463-1.042-3.475-1.78-5.325-1.78-1.584 0-2.471.85-2.471 2.047 0 .812.466 1.466 1.275 2.083 1.196.967 3.475 2.083 4.904 2.9 2.817 1.5 4.125 2.85 4.125 6.058 0 3.471-3.163 5.825-8.333 5.825-3.938 0-8.725-1.583-8.259-3.008l.963-3.012zM308.325 249.08v6.908h5.096v4.246h-5.096v12.158c0 1.504.888 1.734 1.93 1.734 1.003 0 2.316-.425 3.474-1l.692 3.162c.154.654-1 1.196-2.471 1.62-1.196.31-2.317.463-3.896.463-3.358 0-5.787-1.658-5.787-5.058v-13.08H298.6v-4.245h3.667v-6.908h6.058zM329.867 267.988h-3.934c-2.97 0-4.133 1.35-4.133 3.396 0 1.7 1.008 2.858 2.78 2.858 2.083 0 3.94-.962 5.287-2.512v-3.742zm-3.742-8.642c-2.354 0-4.825 1.08-6.562 2.2-.85.58-1.35.271-1.35-.616v-4.054c2.279-1.005 5.712-1.621 8.295-1.621 5.984 0 9.417 2.316 9.417 7.1v15.32h-5.942v-2.354c-1.695 2.088-4.129 3.05-6.712 3.05-4.325 0-7.296-2.779-7.296-6.866 0-4.638 3.204-7.53 9.996-7.53h3.896v-1.62c0-2.121-1.346-3.009-3.742-3.009M339.92 255.988h6.447v2.12c1.583-1.54 3.512-2.853 6.212-2.853 4.596 0 8.104 2.583 8.104 7.333v15.088h-6.058v-14.55c0-2.43-1.08-3.513-3.508-3.513-1.704 0-3.167.696-4.554 1.933v16.13h-6.059v-17.788c0-1.317-.233-1.97-.97-2.78-.5-.578-.192-1.12.387-1.12" fill="#707271" fill-rule="nonzero"/><defs><radialGradient id="_Radial1" cx="0" cy="0" r="1" gradientUnits="userSpaceOnUse" gradientTransform="matrix(1 0 0 -1 0 -.707)"><stop offset="0" stop-color="#fff"/><stop offset="1" stop-color="#cf9c51"/></radialGradient><radialGradient id="_Radial2" cx="0" cy="0" r="1" gradientUnits="userSpaceOnUse" gradientTransform="matrix(1 0 0 -1 0 -.262)"><stop offset="0" stop-color="#00c0f3"/><stop offset=".22" stop-color="#0697d6"/><stop offset=".57" stop-color="#0066b3"/><stop offset="1" stop-color="#0066b3"/></radialGradient></defs></svg>