<svg viewBox="0 0 1529 152" xmlns="http://www.w3.org/2000/svg" fill-rule="evenodd" clip-rule="evenodd" stroke-linejoin="round" stroke-miterlimit="1.414"><path d="M-.179-1.419A1.055 1.055 0 1 0-.13-1.42l-.049.001z" fill="url(#_Radial1)" fill-rule="nonzero" transform="matrix(70.87006 0 0 70.86547 84.971 101.625)"/><path d="M-.097-.614a.478.478 0 1 0 .022 0h-.022zm.057.897c0-.01.015-.013.015-.013.142-.028.1-.121.05-.168-.021-.02-.217-.189-.217-.189-.188-.162-.173-.288-.173-.288.01-.155.145-.193.248-.184.012.001.019.008.016.018-.002.011-.018.012-.018.012a.168.168 0 0 0-.084.02c-.083.056-.058.15.052.256a24.163 24.163 0 0 1 .11.103l.132.12C.24.095.189.209.132.248a.285.285 0 0 1-.155.048h-.002C-.031.296-.039.293-.04.283zm.035-.46a.076.076 0 0 1-.058-.054.163.163 0 0 1-.002-.06c.007-.052.021-.076.037-.117.021-.054-.031-.086-.022-.106.011-.027.049.008.091.01.035.002.057 0 .085.004.037.005.082.018.102.041.018.021-.01.047-.043.031C.16-.44.13-.433.148-.407c.021.024.032.024.054.03.061.016.062.075.021.105-.047.034-.095.02-.114-.047C.1-.353.076-.37.052-.361c-.024.01-.01.054.008.095.032.081-.032.09-.057.09l-.008-.001zm-.178.445a.297.297 0 0 1-.17-.069A.329.329 0 0 1-.45.043c-.016-.054-.022-.117.003-.112.008.001.022.036.037.061a.144.144 0 0 0 .039.049c.005.004.023-.036.05-.058.015-.013.031-.017.034.02.003.046-.005.101.009.101.012 0 .04-.01.103-.015.023-.002.036.003.014.034-.011.016-.026.038-.061.063.053.05.116.044.117.065.001.012-.023.018-.054.018L-.183.268z" fill="url(#_Radial2)" fill-rule="nonzero" transform="matrix(158.49846 0 0 158.48846 87.609 97.338)"/><path d="M936.934 116.013v-70.28c0-3.52-.62-5.279-2.587-7.45-1.242-1.554-.417-3.004 1.033-3.004h18.425v33.638l27.43-33.538h19.15l-28.671 35.3 30.945 45.334h-18.008l-22.875-33.43c-2.07-2.795-3.52-4.037-6.108-4.037h-1.863v37.467h-16.87zM1041.893 90.034h-10.554c-7.971 0-11.075 3.625-11.075 9.112 0 4.55 2.687 7.654 7.45 7.654 5.587 0 10.558-2.587 14.179-6.725V90.034zm-10.038-23.184c-6.316 0-12.941 2.9-17.6 5.9-2.275 1.554-3.62.721-3.62-1.658V60.225c6.108-2.691 15.32-4.346 22.254-4.346 16.041 0 25.254 6.209 25.254 19.046v41.088h-15.938v-6.308c-4.558 5.587-11.075 8.175-18.012 8.175-11.588 0-19.559-7.45-19.559-18.426 0-12.42 8.588-20.183 26.805-20.183h10.454v-4.346c0-5.691-3.621-8.075-10.038-8.075M1086.922 104.63h23.6v11.383h-43.992v-6.208l24.121-40.571h-22.775V57.842h42.23v6.525c0 1.758-.83 3.412-1.555 4.658l-21.629 35.604zM1153.685 90.034h-10.555c-7.97 0-11.075 3.625-11.075 9.112 0 4.55 2.688 7.654 7.45 7.654 5.588 0 10.559-2.587 14.18-6.725V90.034zm-10.038-23.184c-6.317 0-12.942 2.9-17.6 5.9-2.275 1.554-3.62.721-3.62-1.658V60.225c6.108-2.691 15.32-4.346 22.253-4.346 16.042 0 25.255 6.209 25.255 19.046v41.088h-15.938v-6.308c-4.558 5.587-11.075 8.175-18.012 8.175-11.588 0-19.559-7.45-19.559-18.426 0-12.42 8.588-20.183 26.804-20.183h10.455v-4.346c0-5.691-3.621-8.075-10.038-8.075M1183.189 116.013V43.354c0-3.52-.517-5.279-2.588-7.454-1.241-1.554-.412-2.9 1.138-2.9h17.7v47.617l20.6-22.775h18.629l-22.25 24.842 24.942 33.329h-17.909l-17.904-24.325c-1.862-2.584-2.692-3-4.658-3h-1.45v27.325h-16.25zM1246.435 33h17.7v28.88c4.345-3.726 9.833-6.005 16.354-6.005 13.041 0 21.633 7.559 21.633 18.53v41.608h-16.25V76.579c0-5.9-3.004-8.595-9.42-8.595-4.242 0-8.18 1.866-12.317 4.866v43.163h-16.25V43.35c0-3.516-.517-5.275-2.588-7.45-1.242-1.554-.412-2.9 1.138-2.9M1313.41 101.73c4.966 3.312 13.662 4.966 18.425 4.966 5.175 0 7.762-1.654 7.762-5.275 0-2.696-1.346-4.246-6.212-6.729-5.484-2.796-10.346-5.588-15.213-9.525-3.108-2.688-6.108-6-6.108-12.213 0-9.004 7.762-17.079 21.22-17.079 5.792 0 13.455 1.346 18.734 3.521V70.78c0 2.175-1.45 2.588-3.417 1.142-3.933-2.796-9.316-4.762-14.283-4.762-4.246 0-6.625 2.275-6.625 5.487 0 2.171 1.246 3.933 3.417 5.588 3.208 2.587 9.312 5.587 13.141 7.762 7.559 4.033 11.08 7.663 11.08 16.25 0 9.313-8.492 15.63-22.359 15.63-10.558 0-23.391-4.246-22.15-8.076l2.588-8.07zM1386.689 39.317v18.525h13.662v11.392h-13.662v32.6c0 4.037 2.38 4.658 5.175 4.658 2.696 0 6.208-1.138 9.32-2.688l1.86 8.488c.412 1.758-2.693 3.204-6.626 4.346-3.208.825-6.208 1.237-10.454 1.237-9.004 0-15.52-4.45-15.52-13.554V69.234h-9.838V57.842h9.837V39.317h16.246zM1445.068 90.034h-10.554c-7.97 0-11.075 3.625-11.075 9.112 0 4.55 2.687 7.654 7.45 7.654 5.587 0 10.558-2.587 14.18-6.725V90.034zm-10.037-23.184c-6.317 0-12.942 2.9-17.596 5.9-2.28 1.554-3.625.721-3.625-1.658V60.225c6.108-2.691 15.32-4.346 22.254-4.346 16.042 0 25.254 6.209 25.254 19.046v41.088h-15.937v-6.308c-4.559 5.587-11.075 8.175-18.009 8.175-11.596 0-19.562-7.45-19.562-18.426 0-12.42 8.587-20.183 26.804-20.183h10.454v-4.346c0-5.691-3.62-8.075-10.037-8.075M1472.61 57.842h17.283v5.692c4.246-4.138 9.421-7.659 16.663-7.659 12.32 0 21.737 6.934 21.737 19.667v40.47h-16.246v-39.02c0-6.52-2.9-9.417-9.42-9.417-4.555 0-8.488 1.859-12.217 5.171v43.267h-16.246V68.3c0-3.52-.62-5.283-2.588-7.454-1.345-1.55-.52-3.004 1.034-3.004M192.621 98.217c6.042 4.837 15.621 7.858 22.271 7.858 8.167 0 13.104-3.525 13.104-10.279 0-5.242-2.12-8.567-8.766-11.896-7.663-3.929-13.909-6.346-19.755-11.287-5.241-4.634-8.97-10.28-8.97-18.646 0-11.692 9.67-19.854 25.804-19.854 8.862 0 16.325 1.412 23.275 4.437v12.396c0 1.813-1.713 2.417-3.125 1.208-5.642-4.737-11.488-6.954-18.138-6.954-7.158 0-11.191 3.325-11.191 8.767 0 3.933 1.412 6.654 4.033 8.77 5.042 4.134 11.292 7.155 16.833 9.776 10.484 4.941 16.63 10.787 16.63 23.083 0 15.321-13.005 21.667-29.53 21.667-12.196 0-27.616-5.842-25.6-10.884l3.125-8.162zM253.6 35.18h17.234V63.3c4.233-3.625 9.579-5.846 15.925-5.846 12.704 0 21.067 7.359 21.067 18.042v40.517H292v-38.4c0-5.742-2.921-8.363-9.171-8.363-4.134 0-7.963 1.809-11.996 4.734v42.029h-15.821V45.259c0-3.425-.504-5.138-2.525-7.255-1.208-1.516-.396-2.825 1.112-2.825M338.167 41.43c0 5.445-4.033 9.574-9.575 9.574-5.546 0-9.579-4.129-9.579-9.575 0-5.441 4.033-9.575 9.58-9.575 5.54 0 9.574 4.134 9.574 9.575m-.608 17.942v56.642h-15.817V69.346c0-3.22-.708-4.933-2.525-7.05-1.208-1.512-.404-2.925 1.009-2.925h17.333zM350.463 59.371h16.83v5.546c4.133-4.033 9.174-7.463 16.228-7.463 11.996 0 21.167 6.755 21.167 19.155v39.408h-15.825v-38c0-6.35-2.82-9.17-9.17-9.17-4.438 0-8.267 1.812-11.897 5.037v42.133h-15.825V69.55c0-3.425-.6-5.137-2.516-7.254-1.313-1.512-.504-2.925 1.008-2.925M416.688 35.18h17.233V63.3c4.23-3.625 9.575-5.846 15.925-5.846 12.7 0 21.067 7.359 21.067 18.042v40.517h-15.825v-38.4c0-5.742-2.925-8.363-9.175-8.363-4.133 0-7.958 1.809-11.992 4.734v42.029h-15.825V45.259c0-3.425-.504-5.138-2.52-7.255-1.213-1.516-.4-2.825 1.112-2.825M516.567 90.717h-10.279c-7.762 0-10.787 3.525-10.787 8.867 0 4.433 2.62 7.458 7.262 7.458 5.438 0 10.275-2.52 13.804-6.55v-9.775zm-9.775-22.58c-6.15 0-12.6 2.826-17.137 5.747-2.213 1.508-3.53.704-3.53-1.613V61.688c5.95-2.621 14.922-4.234 21.676-4.234 15.62 0 24.591 6.05 24.591 18.546v40.013h-15.525v-6.146c-4.433 5.438-10.783 7.963-17.537 7.963-11.288 0-19.046-7.259-19.046-17.942 0-12.096 8.367-19.654 26.104-19.654h10.18V76c0-5.541-3.53-7.862-9.776-7.862M544.088 59.371h16.83v5.546c4.133-4.033 9.174-7.463 16.229-7.463 11.995 0 21.166 6.755 21.166 19.155v39.408h-15.825v-38c0-6.35-2.82-9.17-9.17-9.17-4.438 0-8.267 1.812-11.896 5.037v42.133h-15.825V69.55c0-3.425-.6-5.137-2.517-7.254-1.313-1.512-.504-2.925 1.008-2.925M683.888 92.63c0-8.367-4.633-11.996-14.112-11.996H659.8v24.191h10.079c9.47 0 14.008-3.729 14.008-12.196M659.801 69.45h8.666c7.559 0 11.688-2.825 11.688-10.383 0-7.663-4.13-10.48-11.988-10.48h-8.366V69.45zm-17.942-32.054h27.713c16.533 0 27.016 7.563 27.016 19.754 0 7.663-3.025 13.309-8.87 16.834 8.162 3.125 13.1 9.07 13.1 19.554 0 14.812-11.988 22.475-30.034 22.475h-27.417V47.575c0-3.425-.604-5.137-2.516-7.254-1.209-1.512-.404-2.925 1.008-2.925M743.655 90.717h-10.283c-7.759 0-10.784 3.525-10.784 8.867 0 4.433 2.621 7.458 7.263 7.458 5.437 0 10.275-2.52 13.804-6.55v-9.775zm-9.78-22.58c-6.145 0-12.595 2.826-17.132 5.747-2.213 1.508-3.53.704-3.53-1.613V61.688c5.95-2.621 14.917-4.234 21.671-4.234 15.625 0 24.592 6.05 24.592 18.546v40.013h-15.52v-6.146c-4.434 5.438-10.784 7.963-17.538 7.963-11.288 0-19.046-7.259-19.046-17.942 0-12.096 8.366-19.654 26.104-19.654h10.18V76c0-5.541-3.53-7.862-9.78-7.862M771.176 59.371h16.83v5.546c4.132-4.033 9.17-7.463 16.228-7.463 11.996 0 21.167 6.755 21.167 19.155v39.408h-15.825v-38c0-6.35-2.82-9.17-9.17-9.17-4.438 0-8.268 1.812-11.897 5.037v42.133h-15.825V69.55c0-3.425-.6-5.137-2.516-7.254-1.313-1.512-.505-2.925 1.008-2.925M838.805 116.013V45.259c0-3.43-.504-5.142-2.517-7.259-1.216-1.512-.404-2.82 1.105-2.82h17.237v46.366l20.054-22.179h18.146l-21.67 24.192 24.291 32.454h-17.438L860.58 92.325c-1.82-2.52-2.62-2.92-4.537-2.92h-1.413v26.608h-15.825z" fill="#707271" fill-rule="nonzero"/><defs><radialGradient id="_Radial1" cx="0" cy="0" r="1" gradientUnits="userSpaceOnUse" gradientTransform="matrix(1 0 0 -1 0 -.707)"><stop offset="0" stop-color="#fff"/><stop offset="1" stop-color="#cf9c51"/></radialGradient><radialGradient id="_Radial2" cx="0" cy="0" r="1" gradientUnits="userSpaceOnUse" gradientTransform="matrix(1 0 0 -1 0 -.262)"><stop offset="0" stop-color="#00c0f3"/><stop offset=".22" stop-color="#0697d6"/><stop offset=".57" stop-color="#0066b3"/><stop offset="1" stop-color="#0066b3"/></radialGradient></defs></svg>