<svg viewBox="0 0 1521 446" xmlns="http://www.w3.org/2000/svg" fill-rule="evenodd" clip-rule="evenodd" stroke-linejoin="round" stroke-miterlimit="1.414"><path d="M50.854 1.305C21.872 2.614-.555 27.165.765 56.143 2.077 85.12 26.62 107.54 55.598 106.231c28.981-1.305 51.394-25.86 50.086-54.834-1.27-28.169-24.509-50.143-52.415-50.143-.8 0-1.608.016-2.415.051z" fill="url(#_Radial1)" transform="scale(4.16667)"/><path d="M41.23 98.894c-5.884-.575-12.911-2.432-19.023-7.72-5.623-4.864-9.112-11.556-10.802-17.419-1.73-6.018-2.455-13.049.402-12.492.879.172 2.396 4.039 4.051 6.852 1.706 2.904 3.102 4.509 4.402 5.49.591.441 2.597-4.02 5.51-6.557 1.702-1.4 3.562-1.881 3.857 2.298.363 5.131-.555 11.222.935 11.222 1.402 0 4.559-1.055 11.487-1.639 2.601-.221 4.083.267 1.604 3.776-1.241 1.741-2.9 4.213-6.825 7.03 5.891 5.517 12.958 4.855 13.083 7.196.075 1.352-2.565 2.096-6.034 2.096a28.46 28.46 0 0 1-2.647-.133zm19.83-49.573c-5.407-1.138-6.506-6.038-6.506-6.038-.449-1.725-.552-3.901-.194-6.68.742-5.808 2.302-8.54 4.079-13.04 2.408-6.053-3.436-9.588-2.471-11.815 1.325-3.014 5.502.816 10.152 1.096 4.008.225 6.424.02 9.541.438 4.138.551 9.088 1.954 11.295 4.547 2.022 2.369-1.068 5.258-4.784 3.445-2.708-1.32-6.133-.508-4.127 2.321 2.416 2.692 3.575 2.767 6.034 3.413 6.778 1.785 6.912 8.272 2.337 11.637-5.226 3.823-10.502 2.247-12.627-5.253-1.068-3.736-3.712-5.64-6.415-4.58-2.692 1.061-1.1 5.979.953 10.543 3.555 9.076-3.649 10.006-6.384 10.006-.418 0-.729-.02-.883-.04zm-3.905 51.266c-.048-1.2 1.71-1.508 1.71-1.508 15.744-3.098 11.141-13.423 5.568-18.691-2.336-2.216-24.256-21.116-24.256-21.116-20.894-17.998-19.223-32.044-19.223-32.044C21.962 9.944 37.1 5.656 48.548 6.645c1.34.111 2.084.934 1.84 2.053-.252 1.214-2.022 1.304-2.022 1.304-3.641.218-6.896.588-9.379 2.255-9.225 6.207-6.503 16.765 5.801 28.512a486.8 486.8 0 0 0 4.879 4.623s2.471 2.18 7.389 6.857A2929.688 2929.688 0 0 0 71.7 65.668c16.675 13.888 10.984 26.581 4.608 30.999-4.86 3.37-10.247 4.945-17.305 5.324l-.189.016c-.658 0-1.608-.402-1.659-1.42zM52.256.548a87.66 87.66 0 0 0-1.434.048C21.45 1.932-1.272 26.807.055 56.175c1.281 28.397 24.599 50.592 52.697 50.824h.884a55.744 55.744 0 0 0 1.997-.051c28.288-1.284 50.421-24.429 50.815-52.385v-1.522a49.611 49.611 0 0 0-.051-1.675C105.127 23.177 82.128 1.1 54.317.548h-2.061z" fill="url(#_Radial2)" transform="scale(4.16667)"/><path d="M572.025 136.904c22.063 27.163 52.034 42.867 79.171 41.13l2.942-.18v-16.42l-2.767-.321c-37.708-4.63-59.637-35.434-60.07-84.505l-.038-3.191h-50.475c-2.263 0-8.167-.104-8.167 4.666 0 1.575.634 5.23 6.459 5.23 2.625 0 4.962.25 6.716.712 2.046.467 4.109 1.475 4.7 7.883-.212 38.15-23.825 66.73-57.391 69.18l-2.884.204v16.762h3.121c24.23 0 54.88-4.8 78.683-41.15zM586.817 269.388c-14.608 0-21.404-7.68-21.404-24.096v-44.963h-47.058c-2.217 0-8.134-.096-8.134 4.7 0 1.563.654 5.217 6.442 5.217 2.642 0 4.93.242 6.692.73 2.158.483 4.337 1.595 4.8 8.75v15.74c0 5.476 1.25 53.355 44.016 53.355h139.113v-19.433H586.817zM663.405 71.558c-2.238 0-8.159-.087-8.159 4.725 0 1.563.646 5.205 6.455 5.205 2.654 0 4.954.25 6.691.725 2 .454 4.025 1.395 4.68 7.266v123.759h37.162V71.558h-46.83zM766.796 138.338c0 28.4 32.046 51.533 71.488 51.533 39.396 0 71.483-23.133 71.483-51.533 0-15-8.966-28.496-23.133-37.934h30.696V81.208h-58.371V60.071h-47.1c-2.225 0-8.17-.092-8.17 4.696 0 1.57.64 5.225 6.49 5.225 2.617 0 4.917.237 6.692.716 2.084.488 4.2 1.521 4.759 8.296-.034-.108-.034.967-.034 2.204h-69.033l11.404 19.196h25.954c-14.229 9.438-23.125 22.934-23.125 37.934zm71.638 31.4c-19.35 0-35.113-14.78-35.113-32.95 0-18.192 15.763-32.98 35.113-32.98 19.396 0 35.15 14.788 35.15 32.98 0 18.17-15.754 32.95-35.15 32.95zM853.83 269.496c-19.3 0-21.409-7.72-21.409-24.137v-44.88h-47.02c-2.213 0-8.142-.058-8.142 4.704 0 1.58.642 5.226 6.48 5.226 2.628 0 4.957.241 6.695.729 2.087.487 4.28 1.546 4.78 8.487l-.026 15.85c0 34.888 15.208 53.338 44.034 53.338H978.55v-19.317H853.83zM1010.613 128.788v-19.359h-31.196V71.575h-46.845c-2.213 0-8.134-.096-8.134 4.717 0 1.546.621 5.191 6.454 5.191 2.646 0 4.959.25 6.684.725 1.783.396 3.57 1.192 4.412 5.546v125.492h37.43v-84.458h31.195zM1419.101 136.483c0-13.575-7.087-25.787-18.317-34.395h26.138V82.975h-46.25v-21.78h-44.3c-2.654 0-8.183 0-8.183 4.68 0 1.575.633 5.217 6.495 5.217 2.65 0 2.75.262 4.542.737 2.146.5 4.408 1.621 4.808 8.921l.121 2.225h-57.796l11.467 19.113h24.138c-11.255 8.608-18.33 20.82-18.33 34.395 0 25.996 25.9 47.18 57.746 47.18 31.83 0 57.721-21.184 57.721-47.18zm-83.558-1.654c0-16.325 11.291-29.579 25.137-29.579 13.842 0 25.117 13.254 25.117 29.58 0 16.324-11.275 29.578-25.117 29.578-13.846 0-25.137-13.254-25.137-29.579zM1424.484 189.033c-51.166 0-92.795 23.505-92.795 52.417 0 28.888 41.629 52.425 92.795 52.425 51.138 0 92.73-23.537 92.73-52.425 0-28.912-41.592-52.417-92.73-52.417zm-.095 86.28c-29.234 0-53.046-15.159-53.046-33.742 0-18.617 23.812-33.783 53.046-33.783 29.279 0 53.054 15.166 53.054 33.783 0 18.583-23.775 33.742-53.054 33.742zM1152.618 57.73c-52.821 0-95.771 24.278-95.771 54.128 0 29.838 42.95 54.105 95.77 54.105 52.78 0 95.721-24.267 95.721-54.105 0-29.85-42.941-54.129-95.72-54.129zm-.075 89.074c-30.188 0-54.746-15.633-54.746-34.837 0-19.209 24.558-34.842 54.746-34.842 30.208 0 54.75 15.633 54.75 34.842 0 19.204-24.542 34.837-54.75 34.837z" fill="#7e8183" fill-rule="nonzero"/><path d="M1520.835 68.675h-33.021v39.996h-13.63V68.675h-41.475c-2.62 0-8.154-.07-8.154 4.608 0 1.584.617 5.238 6.488 5.238 2.654 0 3.533.25 5.287.737 2.18.505 4.842 1.542 4.842 8.884v93.979h33.013v-55.292h13.629v55.292h33.02V68.675zM1061.693 206.117s.412 20.304.554 31.046c.612 35.883 16.479 52.35 46.133 51.554h139.896v-19.33h-128.833c-19.313 0-21.413-7.737-21.413-24.133v-47.912l1.975.016 163.988-.029.033-20.179h-240.809l11.696 20.18 19.121.028s7.084-.787 7.609 8.43l.05.329z" fill="#7e8183" fill-rule="nonzero"/><path d="M584.309 312.63v33.045H581.7c-.85-6.341-2.358-11.391-4.545-15.15-2.184-3.758-5.296-6.741-9.334-8.946-4.037-2.208-8.22-3.312-12.537-3.312-4.888 0-8.925 1.492-12.125 4.475-3.188 2.983-4.784 6.375-4.784 10.18 0 2.912 1.005 5.562 3.03 7.957 2.904 3.525 9.837 8.217 20.783 14.088 8.92 4.796 15.012 8.47 18.28 11.03 3.262 2.557 5.778 5.578 7.537 9.053 1.762 3.475 2.641 7.117 2.641 10.921 0 7.225-2.804 13.463-8.416 18.7-5.613 5.238-12.834 7.854-21.663 7.854-2.77 0-5.375-.208-7.82-.633-1.455-.233-4.476-1.092-9.06-2.575-4.57-1.475-7.47-2.217-8.7-2.217-1.166 0-2.095.35-2.778 1.054-.684.705-1.188 2.167-1.513 4.371h-2.608v-32.758h2.608c1.221 6.854 2.863 11.983 4.93 15.396 2.066 3.404 5.224 6.233 9.474 8.487 4.255 2.254 8.913 3.38 13.988 3.38 5.87 0 10.508-1.55 13.912-4.65 3.405-3.1 5.109-6.759 5.109-10.984 0-2.354-.646-4.72-1.942-7.117-1.287-2.4-3.296-4.629-6.02-6.695-1.83-1.409-6.834-4.405-15.005-8.984-8.175-4.575-13.983-8.233-17.433-10.95-3.459-2.725-6.075-5.733-7.859-9.02-1.783-3.284-2.679-6.905-2.679-10.85 0-6.859 2.634-12.759 7.896-17.721 5.254-4.946 11.946-7.43 20.075-7.43 5.07 0 10.45 1.246 16.13 3.738 2.633 1.17 4.487 1.762 5.57 1.758 1.217 0 2.217-.358 2.992-1.091.775-.725 1.4-2.196 1.866-4.405h2.609zM625.346 363.921h40.225v-24.775c0-4.425-.275-7.337-.825-8.742-.425-1.066-1.32-1.983-2.683-2.745-1.833-1.025-3.77-1.538-5.812-1.538h-3.063v-2.362h37.033v2.362h-3.066c-2.042 0-3.984.492-5.813 1.467-1.358.683-2.287 1.716-2.775 3.1-.487 1.383-.737 4.204-.737 8.458v55.875c0 4.375.279 7.275.833 8.683.425 1.063 1.296 1.98 2.617 2.746 1.875 1.017 3.833 1.53 5.879 1.53h3.062v2.358h-37.033v-2.359h3.063c3.533 0 6.108-1.041 7.729-3.129 1.062-1.362 1.591-4.637 1.591-9.829v-26.37h-40.225v26.37c0 4.383.28 7.28.83 8.683.429 1.063 1.325 1.98 2.683 2.746 1.833 1.017 3.767 1.53 5.812 1.53h3.125v2.358H600.7v-2.359h3.063c3.58 0 6.175-1.041 7.792-3.129 1.025-1.362 1.533-4.637 1.533-9.829v-55.875c0-4.425-.275-7.337-.83-8.742-.428-1.066-1.295-1.983-2.62-2.745-1.867-1.025-3.825-1.538-5.875-1.538H600.7v-2.362h37.096v2.362h-3.125c-2.045 0-3.979.492-5.812 1.467-1.321.683-2.233 1.716-2.742 3.1-.516 1.383-.77 4.204-.77 8.458v24.775zM733.321 407.98v2.358h-37.1v-2.359h3.067c3.575 0 6.17-1.041 7.788-3.129 1.025-1.362 1.533-4.637 1.533-9.829v-55.933c0-4.388-.275-7.28-.833-8.684-.421-1.066-1.296-1.983-2.617-2.745-1.87-1.025-3.83-1.538-5.87-1.538h-3.068v-2.362h37.1v2.362h-3.129c-3.537 0-6.112 1.046-7.725 3.13-1.066 1.362-1.6 4.645-1.6 9.837v55.933c0 4.383.28 7.28.834 8.683.42 1.063 1.316 1.98 2.679 2.746 1.829 1.017 3.766 1.53 5.812 1.53h3.13zM734.913 323.759h23.5l52.938 64.937v-49.933c0-5.317-.6-8.642-1.792-9.959-1.575-1.787-4.07-2.683-7.47-2.683h-3.005v-2.362h30.142v2.362h-3.067c-3.663 0-6.258 1.108-7.788 3.317-.941 1.366-1.412 4.479-1.412 9.325v72.979h-2.292l-57.083-69.72v53.316c0 5.32.57 8.637 1.725 9.958 1.612 1.792 4.108 2.683 7.467 2.683h3.066v2.359h-30.141v-2.359h3.004c3.704 0 6.32-1.112 7.858-3.32.933-1.363 1.404-4.467 1.404-9.321v-60.209c-2.516-2.941-4.416-4.875-5.72-5.812-1.296-.942-3.2-1.808-5.713-2.62-1.233-.384-3.104-.576-5.62-.576v-2.362zM858.022 363.921h40.225v-24.775c0-4.425-.275-7.337-.83-8.742-.429-1.066-1.32-1.983-2.683-2.745-1.83-1.025-3.767-1.538-5.808-1.538h-3.067v-2.362h37.033v2.362h-3.062c-2.042 0-3.98.492-5.813 1.467-1.362.683-2.287 1.716-2.775 3.1-.487 1.383-.737 4.204-.737 8.458v55.875c0 4.375.28 7.275.83 8.683.424 1.063 1.3 1.98 2.624 2.746 1.87 1.017 3.83 1.53 5.87 1.53h3.063v2.358H885.86v-2.359h3.067c3.533 0 6.112-1.041 7.72-3.129 1.067-1.362 1.6-4.637 1.6-9.829v-26.37h-40.224v26.37c0 4.383.275 7.28.829 8.683.425 1.063 1.316 1.98 2.683 2.746 1.83 1.017 3.767 1.53 5.808 1.53h3.13v2.358h-37.096v-2.359h3.062c3.575 0 6.175-1.041 7.792-3.129 1.02-1.362 1.529-4.637 1.529-9.829v-55.875c0-4.425-.275-7.337-.825-8.742-.425-1.066-1.3-1.983-2.625-2.745-1.87-1.025-3.83-1.538-5.87-1.538h-3.063v-2.362h37.096v2.362h-3.13c-2.041 0-3.979.492-5.808 1.467-1.32.683-2.237 1.716-2.75 3.1-.508 1.383-.762 4.204-.762 8.458v24.775zM983.68 376.63l-14.683-34.992-15.075 34.991h29.758zm1.787 4.72h-33.52l-5.875 13.671c-1.45 3.358-2.171 5.871-2.171 7.53 0 1.324.629 2.478 1.883 3.478 1.254 1.005 3.967 1.655 8.138 1.95v2.359h-27.263v-2.359c3.62-.633 5.963-1.47 7.025-2.491 2.17-2.042 4.58-6.192 7.213-12.45l30.458-71.259h2.233l30.142 72.03c2.425 5.783 4.63 9.541 6.608 11.266 1.98 1.725 4.738 2.688 8.271 2.904v2.359h-34.162v-2.359c3.45-.166 5.775-.745 6.991-1.725 1.213-.975 1.821-2.17 1.821-3.57 0-1.875-.854-4.838-2.554-8.875l-5.238-12.459zM1018.417 323.759h23.492l52.938 64.937v-49.933c0-5.317-.6-8.642-1.792-9.959-1.58-1.787-4.062-2.683-7.47-2.683h-3v-2.362h30.137v2.362h-3.067c-3.662 0-6.258 1.108-7.787 3.317-.934 1.366-1.405 4.479-1.405 9.325v72.979h-2.295l-57.088-69.72v53.316c0 5.32.58 8.637 1.72 9.958 1.622 1.792 4.113 2.683 7.472 2.683h3.07v2.359h-30.141v-2.359h3c3.708 0 6.325-1.112 7.858-3.32.933-1.363 1.404-4.467 1.404-9.321v-60.209c-2.512-2.941-4.42-4.875-5.712-5.812-1.304-.942-3.204-1.808-5.717-2.62-1.233-.384-3.108-.576-5.617-.576v-2.362zM1174.272 404.084c4.937 1.154 9.812 1.725 14.625 1.725 7.704 0 13.579-1.738 17.62-5.209 4.046-3.466 6.071-7.75 6.071-12.862 0-3.363-.916-6.596-2.75-9.704-1.829-3.113-4.812-5.559-8.937-7.342-4.13-1.788-9.238-2.683-15.325-2.683-2.638 0-4.896.041-6.767.125-1.87.087-3.383.233-4.537.45v35.5zm0-41.375c1.575.295 3.375.525 5.396.675 2.025.145 4.25.22 6.675.22 6.216 0 10.883-.67 14.016-2.012 3.125-1.342 5.521-3.392 7.184-6.158 1.658-2.771 2.487-5.792 2.487-9.071 0-5.067-2.062-9.384-6.192-12.963-4.125-3.575-10.154-5.366-18.07-5.366-4.259 0-8.088.47-11.496 1.404v33.27zm33.458 3.45c6.004 1.275 10.496 3.32 13.475 6.129 4.125 3.916 6.192 8.704 6.192 14.366 0 4.296-1.363 8.413-4.084 12.355-2.729 3.937-6.458 6.812-11.208 8.616-4.742 1.813-11.996 2.713-21.742 2.713h-40.862v-2.359h3.254c3.62 0 6.217-1.15 7.788-3.445.987-1.496 1.475-4.659 1.475-9.513v-55.933c0-5.367-.621-8.754-1.855-10.159-1.658-1.87-4.129-2.808-7.408-2.808h-3.254v-2.362h37.417c6.983 0 12.579.508 16.795 1.533 6.384 1.53 11.259 4.246 14.621 8.142 3.363 3.895 5.042 8.37 5.042 13.441 0 4.342-1.32 8.225-3.958 11.654-2.642 3.421-6.534 5.967-11.688 7.63zM1292.722 376.63l-14.683-34.992-15.075 34.991h29.758zm1.783 4.72h-33.52l-5.876 13.671c-1.445 3.358-2.17 5.871-2.17 7.53 0 1.324.625 2.478 1.887 3.478 1.254 1.005 3.963 1.655 8.138 1.95v2.359h-27.267v-2.359c3.62-.633 5.958-1.47 7.025-2.491 2.17-2.042 4.579-6.192 7.216-12.45l30.459-71.259h2.233l30.138 72.03c2.425 5.783 4.629 9.541 6.604 11.266 1.983 1.725 4.737 2.688 8.27 2.904v2.359h-34.153v-2.359c3.445-.166 5.775-.745 6.983-1.725 1.212-.975 1.82-2.17 1.82-3.57 0-1.875-.845-4.838-2.55-8.875l-5.237-12.459zM1327.451 323.759h23.5l52.933 64.937v-49.933c0-5.317-.595-8.642-1.787-9.959-1.575-1.787-4.07-2.683-7.47-2.683h-3.005v-2.362h30.142v2.362h-3.067c-3.663 0-6.258 1.108-7.788 3.317-.941 1.366-1.412 4.479-1.412 9.325v72.979h-2.292l-57.087-69.72v53.316c0 5.32.575 8.637 1.725 9.958 1.616 1.792 4.112 2.683 7.47 2.683h3.067v2.359h-30.141v-2.359h3.004c3.704 0 6.32-1.112 7.858-3.32.933-1.363 1.404-4.467 1.404-9.321v-60.209c-2.516-2.941-4.42-4.875-5.716-5.812-1.3-.942-3.209-1.808-5.713-2.62-1.237-.384-3.112-.576-5.625-.576v-2.362zM1462.755 362.33l31.925 31.733c5.234 5.233 9.709 8.796 13.405 10.696 3.704 1.891 7.408 2.962 11.112 3.22v2.359h-41.183v-2.359c2.466 0 4.246-.416 5.333-1.241 1.083-.834 1.63-1.763 1.63-2.784 0-1.016-.205-1.933-.61-2.745-.407-.805-1.737-2.321-3.995-4.53l-29.88-29.566v27.908c0 4.383.284 7.28.83 8.683.43 1.063 1.325 1.98 2.683 2.746 1.83 1.017 3.763 1.53 5.809 1.53h2.941v2.358h-36.908v-2.359h3.062c3.58 0 6.175-1.041 7.792-3.129 1.025-1.362 1.533-4.637 1.533-9.829v-55.933c0-4.388-.275-7.3-.829-8.754-.429-1.017-1.296-1.913-2.616-2.675-1.875-1.025-3.83-1.538-5.88-1.538h-3.062v-2.362h36.908v2.362h-2.941c-1.996 0-3.938.492-5.809 1.467-1.316.683-2.233 1.708-2.741 3.066-.517 1.363-.771 4.175-.771 8.434v26.491c.85-.804 3.762-3.512 8.75-8.104 12.642-11.579 20.283-19.304 22.92-23.183 1.15-1.7 1.722-3.192 1.722-4.467 0-.975-.446-1.837-1.334-2.587-.896-.746-2.408-1.117-4.537-1.117h-1.98v-2.362h31.796v2.362c-1.87.042-3.575.304-5.108.77-1.53.468-3.404 1.372-5.617 2.713-2.216 1.338-4.937 3.496-8.175 6.48-.937.854-5.254 5.212-12.958 13.091l-13.217 13.154z" fill="#7d7f81" fill-rule="nonzero"/><defs><radialGradient id="_Radial1" cx="0" cy="0" r="1" gradientUnits="userSpaceOnUse" gradientTransform="translate(63.56 40.252) scale(49.8589)"><stop offset="0" stop-color="#fff"/><stop offset="1" stop-color="#ce9c51"/></radialGradient><radialGradient id="_Radial2" cx="0" cy="0" r="1" gradientUnits="userSpaceOnUse" gradientTransform="translate(62.132 40.304) scale(111.495)"><stop offset="0" stop-color="#13c0f1"/><stop offset=".6" stop-color="#1066b2"/><stop offset="1" stop-color="#1066b2"/></radialGradient></defs></svg>