<svg width="92" height="33" xmlns="http://www.w3.org/2000/svg"><g fill="none" fill-rule="evenodd"><path d="M27.66 0H6.18L4.62 4.26h21.479L27.659 0zm-2.342 6.42H3.84l-1.56 4.26h21.48l1.558-4.26zm-2.34 6.36H1.5L0 17.04h21.479l1.5-4.26z" fill="#009FDF"/><path d="M86.757 18.73v.087c.974.355 1.903.975 2.39 1.373 1.505 1.24 2.17 2.877 2.17 5.002 0 3.496-1.86 6.02-4.914 6.815-.93.267-1.903.355-3.718.355h-9.25V6.779h8.187c1.683 0 2.834.088 3.852.353 2.965.797 4.913 2.834 4.913 6.065 0 1.725-.62 3.187-1.638 4.16a6.207 6.207 0 0 1-1.992 1.372zm-8.188 2.7v6.727h3.54c1.063 0 2.037-.088 2.745-.753.708-.663 1.018-1.505 1.018-2.61 0-.842-.221-1.64-.664-2.214-.752-.929-1.682-1.15-3.276-1.15H78.57zm-.045-4.426h2.878c.885 0 1.327 0 1.77-.134 1.195-.354 1.947-1.416 1.947-2.876 0-1.727-.796-2.48-1.947-2.833-.487-.134-.973-.177-1.948-.177h-2.7v6.02zM58.695 32.362v-21.29h-7.391V6.779h20.537l-1.461 4.293h-6.55v21.29h-5.135zm-21.595 0L29.053 6.779h5.645l3.123 11.11c.9 3.303 1.38 5.044 1.981 7.807.54-2.643.9-3.904 1.921-7.627l3.124-11.29h5.404l-8.167 25.583H37.1z" fill="#0A2973"/></g></svg>