<svg data-name="Layer 1" xmlns="http://www.w3.org/2000/svg" viewBox="0 0 180 80"><defs><mask id="a" x="66.65" y="24.47" width="96.89" height="42.86" maskUnits="userSpaceOnUse"><path fill="#fff" d="M66.65 67.33h96.89V24.47H66.65v42.86z"/></mask></defs><path d="M23.75 13.84l-2.55 7h35.39l2.56-7zm-3.83 10.5l-2.56 7h35.4l2.55-7zm-3.83 10.49l-2.55 7h35.4l2.55-7z" fill="#149dd8"/><g mask="url(#a)"><path d="M88.79 44.49v.15a14.68 14.68 0 0 1 4 2.3c2.5 2.07 3.61 4.82 3.61 8.38 0 5.86-3.09 10.08-8.17 11.42a21.65 21.65 0 0 1-6.18.59h-15.4V24.47h13.61a25.31 25.31 0 0 1 6.4.59c4.93 1.34 8.16 4.75 8.16 10.16a9.54 9.54 0 0 1-2.72 7 10.27 10.27 0 0 1-3.31 2.27zM75.18 49v11.29h5.89c1.76 0 3.38-.15 4.56-1.26a5.67 5.67 0 0 0 1.69-4.38 6.2 6.2 0 0 0-1.1-3.71C85 49.39 83.42 49 80.77 49zm-.07-7.41h4.78a10.29 10.29 0 0 0 2.94-.22 4.68 4.68 0 0 0 3.24-4.82c0-2.89-1.33-4.16-3.24-4.75a11.77 11.77 0 0 0-3.24-.29h-4.48zm34.06 25.73V31.66H96.88v-7.19H131l-2.43 7.19H117.7v35.67zm24.5 0V24.47h27.66l-2.42 7.19h-16.78v9.49H149c5.52 0 8.39 1.34 10.38 3 1.54 1.34 4.19 4.31 4.19 10.16s-2.72 9-5 10.61c-2.65 1.85-5.45 2.37-11.11 2.37zm8.46-7.19h6.4c2.43 0 3.9-.6 4.93-1.93a6.21 6.21 0 0 0 1.25-4.08 5.64 5.64 0 0 0-2.21-4.89 6.3 6.3 0 0 0-4-1h-6.33z" fill="#26326f"/></g></svg>